<svg xmlns="http://www.w3.org/2000/svg" viewBox="0 0 90 90"><path d="M82.2 32.1c-1.8 0-3.2-1.5-3.2-3.2v-1.6h-1.6c-6.3 0-11.3-5.1-11.3-11.3v-1.6h-1.6c-3.6 0-6.5-2.9-6.5-6.5V6.2h-1.6c-6.5 0-12.9 2.3-17.9 6.6-5 4.2-8.2 10.1-9.3 16.5-5.7.9-10.9 3.6-15 7.7-5.2 5.1-8 12-8 19.3s2.8 14.3 8 19.5c5.2 5.2 12.1 8.1 19.5 8.1 7.3 0 14.3-2.9 19.5-8.1 4.1-4.1 6.8-9.3 7.7-15 6.4-1 12.2-4.3 16.5-9.3 4.2-5 6.6-11.3 6.6-17.9V32h-1.8zM50.8 73.5c-4.6 4.6-10.7 7.1-17.2 7.1S21 78.1 16.4 73.5 9.3 62.8 9.3 56.3s2.5-12.6 7.1-17.2S27.2 32 33.7 32s12.6 2.5 17.2 7.1S58 49.8 58 56.3s-2.6 12.6-7.2 17.2zm23.9-23.9c-3.5 4-8.3 6.8-13.5 7.9v-1.2c0-7.3-2.9-14.3-8.1-19.5-5.2-5.2-12.1-8.1-19.5-8.1h-1.2C34.6 17.9 43.7 9.9 54.7 9.3c.3 2 1.3 3.8 2.7 5.2 1.5 1.4 3.3 2.4 5.3 2.7.7 6.9 6.2 12.3 13.1 13 .6 2.3 2.3 4.1 4.6 4.7-.1 5.5-2.2 10.7-5.7 14.7zM48.2 62.9c0 1.8-1.4 3.2-3.2 3.2s-3.2-1.4-3.2-3.2c0-1.8 1.4-3.2 3.2-3.2s3.2 1.4 3.2 3.2zm-13 8c0 1.8-1.4 3.2-3.2 3.2-1.8 0-3.2-1.4-3.2-3.2s1.4-3.2 3.2-3.2c1.8 0 3.2 1.4 3.2 3.2zm.1-26.1c0 1.8-1.4 3.2-3.2 3.2-1.8 0-3.2-1.4-3.2-3.2 0-1.8 1.4-3.2 3.2-3.2 1.7 0 3.2 1.4 3.2 3.2zm25.9-14.4c0 1.8-1.4 3.2-3.2 3.2-1.8 0-3.2-1.4-3.2-3.2 0-1.8 1.4-3.2 3.2-3.2 1.7 0 3.2 1.5 3.2 3.2zM24.3 58.5c0 1.8-1.4 3.2-3.2 3.2-1.8 0-3.2-1.4-3.2-3.2 0-1.8 1.4-3.2 3.2-3.2 1.8 0 3.2 1.5 3.2 3.2zm25.5-8.6c0 1.8-1.4 3.2-3.2 3.2-1.8 0-3.2-1.4-3.2-3.2s1.4-3.2 3.2-3.2c1.8-.1 3.2 1.4 3.2 3.2zm0-30.8c0 1.8-1.4 3.2-3.2 3.2-1.8 0-3.2-1.4-3.2-3.2 0-1.8 1.4-3.2 3.2-3.2 1.8 0 3.2 1.4 3.2 3.2zm24.3 19.4c0 1.8-1.4 3.2-3.2 3.2s-3.2-1.4-3.2-3.2c0-1.8 1.4-3.2 3.2-3.2s3.2 1.4 3.2 3.2z" fill="#fff"/></svg>