<svg xmlns="http://www.w3.org/2000/svg" viewBox="0 0 90 90"><path d="M77.4 50.1c-1.5-1.5-3.9-1.9-5.8-.8l-5.9 3.4c-1.9 1.1-4.2.9-6-.5l-.7-.5c-1.5-1.2-3.4-1.9-5.3-1.9s-3.8.7-5.3 1.9c-2 1.6-4.7 1.6-6.6 0-1.5-1.2-3.4-1.9-5.3-1.9s-3.8.7-5.3 1.9l-.7.5c-1.7 1.4-4.1 1.6-6 .5l-5.9-3.4c-1.9-1.1-4.3-.8-5.8.8l-.8.8 13.5 30c.8 1.9 2.6 3.2 4.7 3.2H60c2.1 0 3.9-1.3 4.7-3.2l13.5-30-.8-.8zm-27.1 4.1c2-1.6 4.7-1.6 6.6 0l.7.5c.9.7 1.9 1.2 3 1.6l-8.2 24.5h-5.9V56.4c0-.2 0-.3-.1-.5 1.5-.2 2.8-.8 3.9-1.7zm-17.9.6l.7-.5c2-1.6 4.7-1.6 6.6 0 1.1.9 2.4 1.5 3.8 1.7 0 .1-.1.3-.1.5v24.4h-5.9l-8.2-24.5c1.1-.4 2.1-.9 3.1-1.6zm-4.1 24.9L15.9 51.9c.3 0 .7 0 1 .2l5.9 3.4c1 .6 2.1.9 3.3 1.1 0 .1 0 .2.1.4l8 23.9H30c-.7-.1-1.4-.5-1.7-1.2zm33.4-.1c-.3.8-1 1.3-1.8 1.3h-4.1l8-23.9c0-.1.1-.2.1-.4 1.2-.1 2.3-.5 3.3-1.1l5.9-3.4c.3-.2.6-.2 1-.2L61.7 79.6zM16 45.7c.8.5 1.8.3 2.2-.5 1-1.5 2.8-2.8 5.5-3.9.4-.1.7-.3 1.1-.4 3-1.1 6.8-1.9 11.5-2.5 8.5-1.1 17.7-1.1 23.8-1.1h.4c7.7 0 11 4.2 12.4 7.6.3.6.9 1 1.5 1 .2 0 .4 0 .6-.1.8-.3 1.2-1.3.9-2.1-2.1-5.3-6.3-8.5-12-9.4v-4.5c0-.6 0-4.4-3.2-7-1.5-1.2-3.4-2-5.7-2.3.1-1.8.1-4.5-1.4-7.1-2-3.5-5.9-5.8-11.8-7L40 5.9l-.1 1.9c-.3 4.5-3 6.6-5.9 8.9-2.9 2.2-6.1 4.7-5.2 9.6-.7.4-1.4.7-2 1.1-3.5 2.4-5.2 5.8-5.3 11.3-2.8 1.3-4.8 2.9-6 4.7-.5.8-.2 1.8.5 2.3zm20-26.5c2.7-2.1 5.9-4.6 6.9-9.4 4 1.1 6.6 2.8 7.9 5.1 1.1 1.9 1.1 3.8 1 5.4-2.2.1-4.6.5-7.3 1.1-.6.2-1.3.3-1.9.5-4.3 1.1-7.9 2-10.8 3.1 0-2.4 1.5-3.7 4.2-5.8zM25.7 33.6c.6-1.4 1.6-2.6 3-3.5 3-2.1 7.9-3.3 14.8-5.1.6-.2 1.2-.3 1.9-.5 6.2-1.6 10.8-1.4 13.3.6 2.1 1.7 2.1 4.2 2 4.4V34h-.5C54 34 44.7 34 36 35.1c-4.4.5-8.1 1.3-11.1 2.3.1-1.5.4-2.7.8-3.8z" fill="#fff"/></svg>