<?xml version="1.0" encoding="utf-8"?>
<!-- Generator: Adobe Illustrator 21.0.2, SVG Export Plug-In . SVG Version: 6.00 Build 0)  -->
<svg version="1.1" id="Layer_1" xmlns="http://www.w3.org/2000/svg" xmlns:xlink="http://www.w3.org/1999/xlink" x="0px" y="0px"
	 viewBox="0 0 280 176.5" style="enable-background:new 0 0 280 176.5;" xml:space="preserve">
<metadata><?xpacket begin="﻿" id="W5M0MpCehiHzreSzNTczkc9d"?>
<x:xmpmeta xmlns:x="adobe:ns:meta/" x:xmptk="Adobe XMP Core 5.6-c137 79.159768, 2016/08/11-13:24:42        ">
   <rdf:RDF xmlns:rdf="http://www.w3.org/1999/02/22-rdf-syntax-ns#">
      <rdf:Description rdf:about=""/>
   </rdf:RDF>
</x:xmpmeta>
                                                                                                    
                                                                                                    
                                                                                                    
                                                                                                    
                                                                                                    
                                                                                                    
                                                                                                    
                                                                                                    
                                                                                                    
                                                                                                    
                                                                                                    
                                                                                                    
                                                                                                    
                                                                                                    
                                                                                                    
                                                                                                    
                                                                                                    
                                                                                                    
                                                                                                    
                                                                                                    
                           
<?xpacket end="w"?></metadata>
<style type="text/css">
	.st0{opacity:1.500000e-02;fill:#1C1A1A;enable-background:new    ;}
	.st1{fill:#FF99A9;}
	.st2{fill:#1C1A1A;}
	.st3{fill:#FFF2CB;}
	.st4{fill:#F1D58E;}
	.st5{fill:#FF5363;}
	.st6{fill:#D73545;}
	.st7{fill:#1A1512;}
	.st8{fill:#D3A470;}
	.st9{fill:#FFC1D1;}
	.st10{fill:#FFCF50;}
	.st11{fill:#8E4795;}
	.st12{fill:#4EECDD;}
	.st13{fill:#C99A66;}
	.st14{fill:#FFFAFF;}
	.st15{fill:#FFFFFF;}
	.st16{fill:#EB3F4F;}
	.st17{fill:#FFC179;}
	.st18{fill:#0D9306;}
	.st19{fill:#0ABF04;}
	.st20{fill:#39000F;}
	.st21{fill:#036802;}
	.st22{fill:#028801;}
	.st23{opacity:0.3;fill:#FFFFFF;}
</style>
<ellipse class="st0" cx="213" cy="169.6" rx="34.1" ry="6"/>
<ellipse class="st0" cx="213" cy="169.5" rx="33.1" ry="5.7"/>
<ellipse class="st0" cx="213" cy="169.4" rx="32" ry="5.2"/>
<path class="st0" d="M243.9,169.4c0,2.7-13.8,4.9-30.8,4.9s-30.8-2.2-30.8-4.9s13.8-5,30.8-5S243.9,166.6,243.9,169.4z"/>
<ellipse class="st0" cx="213" cy="169.3" rx="29.7" ry="4.7"/>
<ellipse class="st0" cx="213" cy="169.2" rx="28.5" ry="4.6"/>
<ellipse class="st0" cx="213" cy="169.1" rx="27.6" ry="4.5"/>
<ellipse class="st0" cx="213" cy="169.2" rx="26.3" ry="4.2"/>
<ellipse class="st0" cx="213" cy="169.1" rx="25.3" ry="4"/>
<ellipse class="st0" cx="87.6" cy="169.6" rx="50.7" ry="6.9"/>
<ellipse class="st0" cx="87.6" cy="169.5" rx="49.2" ry="6.6"/>
<path class="st0" d="M135.2,169.4c0,3.3-21.3,6-47.6,6s-47.6-2.7-47.6-6s21.3-6,47.6-6S135.2,166.1,135.2,169.4z"/>
<path class="st0" d="M133.4,169.4c0,3.2-20.5,5.7-45.8,5.7s-45.8-2.6-45.8-5.7c0-3.2,20.5-5.7,45.8-5.7
	C112.9,163.6,133.4,166.2,133.4,169.4z"/>
<ellipse class="st0" cx="87.6" cy="169.2" rx="44.1" ry="5.5"/>
<ellipse class="st0" cx="87.6" cy="169.1" rx="42.3" ry="5.3"/>
<ellipse class="st0" cx="87.6" cy="169" rx="41" ry="5.2"/>
<path class="st0" d="M126.7,169.1c0,2.7-17.5,4.8-39,4.8c-21.6,0-39.1-2.2-39.1-4.8c0-2.7,17.5-4.8,39.1-4.8
	C109.2,164.3,126.7,166.4,126.7,169.1z"/>
<ellipse class="st0" cx="87.6" cy="169.1" rx="37.5" ry="4.6"/>
<path class="st1" d="M115.8,78.9c1.8-0.3,3.5-0.7,5.1-1c3.3-0.7,6.3-1.3,8.4-0.5c-2.1-4.1-6.1-7.2-10.3-7.7l-54.7-2.4l-0.1,0
	c-1.9-0.2-4.2,0-6.7,0.4c-4.5,0.9-9,2.7-11.8,4.9L29.5,85.2c-3.7,2.9-6.1,8.7-6,13.9c0.5-1.3,1.6-2.1,3.1-2.6
	c1.5-0.6,3.3-0.9,5.4-1.3c1.5-0.3,3.2-0.6,4.9-0.9L115.8,78.9z"/>
<path class="st2" d="M157.6,81.2L157.6,81.2c-0.4-1.9-2.6-2.2-3.8-2c-1,0.2-1.7,0.7-2.1,1.4c-0.6,1-0.4,2.3-0.3,3.1
	c-0.2-0.1-0.4-0.1-0.6-0.1c-0.6,0-1.1,0.3-1.6,0.9c-0.6,0.8-0.8,1.5-0.5,2.2c0.3,0.7,1.1,1.5,3.6,1.7c-3.2,10.6-8.5,14.7-14.3,16.5
	l-4.8-24.7c-1.3-6.9-7.5-12.8-14.1-13.4l-0.1,0l-54.7-2.4c-2.2-0.2-4.8,0-7.5,0.5c-5,1-9.8,3-13,5.4L27.7,82.9
	c-5.2,4-8.2,12.4-6.9,19.2l4.5,23c-6.2-0.2-12.5-2.8-18.4-12.5c2.4-0.8,3-1.8,3.1-2.5c0.1-0.7-0.3-1.4-1.1-2
	c-0.6-0.5-1.2-0.6-1.8-0.5c-0.2,0-0.4,0.1-0.5,0.2c0-0.8-0.2-2.1-1-3c-0.6-0.6-1.4-0.9-2.4-0.9c-1.1,0.1-3.2,0.9-3.1,2.9
	c0.1,2.5,1.1,5.4,3.5,6c7.1,12.4,15,15.2,22.4,15.3L29,144c1.6,8.3,8.9,6.8,13.3,6l16.3-3.2c-0.1,1.5-0.6,5.2-2.8,7.3
	c-1.2,1.1-2.7,1.6-4.7,1.4c-0.2,0-0.3,0-0.5,0c-1.1-0.3-2.2,0.1-3.1,1.1c-0.7,0.7-0.9,1.6-0.7,2.2l0.1,0.2c1.9,4.5,3.8,6.9,5.7,7.2
	c0.1,0,0.3,0,0.4,0c0.7,0,1.4-0.3,2.1-1c1.7-1.7,1.4-4-0.7-6.6c1.4-0.4,2.7-1.1,3.8-2.1c3.9-3.7,4-10.2,4-10.5c0,0,0,0,0,0
	l55.6-10.8c0.1,0.1,0.2,0.1,0.3,0.1c1.4,0.4,5.4,2.1,6.9,4.9c0.7,1.5,0.8,3.1,0.1,5c-0.1,0.2-0.1,0.3-0.1,0.5
	c-0.6,1-0.5,2.2,0.2,3.2c0.5,0.8,1.2,1.3,1.8,1.3c0.1,0,0.1,0,0.2,0l0.2,0c4.8-0.6,7.7-1.8,8.5-3.5c0.4-0.8,0.3-1.7-0.2-2.7
	c-1.2-2.1-3.5-2.5-6.6-1.1c0-1.5-0.3-2.9-1-4.2c-1-2.1-2.8-3.6-4.5-4.6l7.9-1.5c4.4-0.9,11.7-2.3,10.1-10.5l-2.8-14.2
	c4.5-1.4,9.2-4.1,12.8-10c1.7-2.8,3.1-6.1,4.2-10C158.5,86.4,157.8,82,157.6,81.2z M138.6,122.7c0.8,4.2-0.9,5.8-7.8,7.1l-11.9,2.3
	l0,0l-0.4,0.1l-76.7,14.9c-6.9,1.3-9.1,0.5-9.9-3.7l-8.1-41.9c-1.1-5.7,1.5-13,5.8-16.4l16.2-12.5c2.8-2.1,7.3-4,11.8-4.9
	c2.5-0.5,4.8-0.6,6.7-0.4l0.1,0l54.7,2.4c5.3,0.5,10.4,5.5,11.5,11.1l4.8,24.8l0,0l0.6,3h0L138.6,122.7z"/>
<g>
	<path class="st3" d="M23.5,99.1c0,0.3,0,0.5,0,0.7c0.3-1.7,1.4-2.7,3.1-3.4C25.1,97,24,97.8,23.5,99.1z"/>
	<polygon class="st3" points="131.6,86.5 129.6,86.9 24.8,107.2 30.7,137.5 137.5,116.8 	"/>
</g>
<path class="st4" d="M213,99.6c26.7,0,48.4-21.7,48.4-48.3c0-19.4-11.5-36.2-28.1-43.9c-4-1.5-8.3-2.6-12.7-3c-0.1,0-0.1,0-0.2,0
	c-0.7-0.1-1.5-0.1-2.2-0.2c-0.8,0-1.6-0.1-2.5-0.1c-27.5,0-49.8,22.3-49.8,49.8c0,6.1,1.1,12,3.1,17.4C176.6,88,193.5,99.6,213,99.6
	z M213,33.9c9.5,0,17.3,7.8,17.3,17.3c0,9.5-7.8,17.3-17.3,17.3c-9.6,0-17.3-7.8-17.3-17.3C195.7,41.7,203.4,33.9,213,33.9z"/>
<path class="st5" d="M254.6,74.3v-16c1.2,1.8,3.3,3,5.5,3c0.1,0,0.2,0,0.2,0c0.7-3.2,1.1-6.6,1.1-10c0-26.7-21.7-48.4-48.4-48.4
	c-26.7,0-48.4,21.7-48.4,48.4c0,8.5,2.2,16.5,6.1,23.5c2.9-1,4.8-3.9,4.8-7.2V41.3c0-3.1,2.9-5.5,5.9-5.5c1.5,0,2.7,0.6,3.7,1.6
	c1,1,1.4,2.4,1.4,3.9v14.1c0,1.5,1,2.9,2,3.9c1,1,2.6,1.6,4.1,1.6c1.9,0,3.6-0.9,4.6-2.4c-1-2.2-1.6-4.7-1.6-7.3
	c0-9.6,7.8-17.3,17.3-17.3c2.8,0,5.5,0.7,7.9,1.9c0.5-0.9,1.4-1.5,2.4-1.8c0.3-0.1,0.5-0.1,0.8-0.2c0.1,0,0.3,0,0.4,0
	c0.1,0,0.3,0,0.4,0c0.1,0,0.3,0,0.4,0.1c0.5,0.1,1,0.3,1.5,0.6h0c0.2,0.1,0.4,0.3,0.6,0.5c0.1,0.1,0.2,0.2,0.2,0.3l0.1,0.1l0.1,0.1
	l0,0l0,0.1l0.1,0.1l0.1,0.1c0.1,0.1,0.1,0.2,0.2,0.3c0.1,0.1,0.1,0.3,0.2,0.4c0.1,0.2,0.1,0.8,0.2,1c0,0.6,0.1,2.9,0.2,6.5
	c1,2.2,1.6,4.6,1.6,7.2c0,2.4-0.5,4.6-1.3,6.6c0,2.7,0,5.6,0,8.8c0,3.9,2.8,4.4,4,4.4c2.4,0,3.5-1.9,3.5-4.3V54.6
	c0-1.8,1.9-3.3,3.7-3.3c0.9,0,1.4,0.4,2,1c0.6,0.6,0.7,1.4,0.7,2.3v20.9c0,2,0.9,3.1,1.1,3.3c1.2,1.2,2.5,1.9,4.3,1.9
	c1.6,0,3-0.6,4-1.5c0.6-0.9,1.2-1.7,1.8-2.6C254.4,75.9,254.6,75.1,254.6,74.3z"/>
<path class="st2" d="M219.1,79.9c0.1,2.8-2.6,5.1-5.9,5.2c-3.4,0.1-6.1-2.1-6.2-4.9c0-0.2,0-0.2,0-0.2c0-0.2,1.3-0.5,2.9-0.5
	l6.3-0.2c1.6,0,2.9,0.1,2.9,0.4C219.1,79.6,219.1,79.6,219.1,79.9z M225.1,76.1c0-1.5-1.3-2.6-2.7-2.6c-1.5,0-2.6,1.3-2.6,2.7
	c0,1.5,1.3,2.6,2.7,2.6C223.9,78.7,225.1,77.5,225.1,76.1z M206.2,76.5c0-1.5-1.2-2.6-2.7-2.6c-1.5,0-2.6,1.3-2.6,2.7
	c0,1.5,1.3,2.6,2.7,2.6C205.1,79.2,206.2,78,206.2,76.5z"/>
<path class="st6" d="M209.1,32.1c-8.8,0-15.9,7.1-15.9,15.9c0,4,1.5,7.7,4,10.5c-1-2.2-1.6-4.6-1.6-7.2c0-9.6,7.8-17.3,17.3-17.3
	c1.6,0,3.2,0.2,4.6,0.6C215.2,33,212.2,32.1,209.1,32.1L209.1,32.1z"/>
<path class="st7" d="M213,33.9c-9.6,0-17.3,7.8-17.3,17.3c0,2.6,0.6,5,1.6,7.2c1.1,1.2,2.3,2.2,3.6,3c-2.3-2.8-3.7-6.3-3.7-10.2
	c0-8.8,7.1-15.9,15.9-15.9c3,0,5.8,0.8,8.2,2.3c-1-1.2-2.2-2.3-3.6-3.2C216.1,34.2,214.6,33.9,213,33.9L213,33.9z"/>
<path class="st8" d="M252.4,79.2c-1.1,1-2.5,1.5-4.1,1.5c-0.6,0-1.1-0.1-1.6-0.2c-9.1,10.6-22.6,17.2-37.7,17.2
	c-6.3,0-12.2-1.2-17.7-3.3c6.5,3.3,13.9,5.1,21.6,5.1C229.3,99.6,243.7,91.5,252.4,79.2L252.4,79.2z M257.3,60.6
	c-0.7,2.7-1.6,5.2-2.7,7.7v6c0,0.8-0.1,1.6-0.4,2.3c2.9-4.6,5-9.8,6.1-15.3c-0.1,0-0.2,0-0.2,0C259.1,61.3,258.1,61.1,257.3,60.6
	L257.3,60.6z"/>
<path class="st6" d="M254.6,68.3c-2,4.4-4.6,8.6-7.8,12.2c0.5,0.1,1,0.2,1.6,0.2c1.6,0,3-0.6,4.1-1.5c0.6-0.9,1.2-1.7,1.7-2.6
	c0.3-0.7,0.4-1.5,0.4-2.3V68.3L254.6,68.3z M252.2,23c4.3,7.3,6.7,15.9,6.7,25c0,4.4-0.6,8.6-1.6,12.7c0.9,0.4,1.8,0.7,2.8,0.7
	c0.1,0,0.2,0,0.2,0c0.7-3.2,1-6.6,1-10C261.3,40.7,257.9,30.9,252.2,23L252.2,23z"/>
<g>
	<path class="st2" d="M278.6,58.8c0-0.1,0-0.2,0-0.3l0.2-4.7l0-0.1c0-4.1-1.2-6.7-3.5-7.8c-3.5-1.6-8.4,1.2-11.1,3.1
		C263.1,21.9,240.5,0,213,0c-27.2,0-49.5,21.3-51.2,48.1c-7.7-4.8-9.8-10.9-10.8-16.4c2.5-0.9,3.2-1.9,3.3-2.6
		c0.1-0.7-0.3-1.4-1.1-2c-0.6-0.4-1.2-0.6-1.8-0.5c-0.2,0.1-0.4,0.1-0.5,0.2c0-0.8-0.3-2.1-1.1-2.9c-0.6-0.6-1.4-0.9-2.4-0.8
		c-1.1,0.2-3.2,1-3.1,3c0.2,2.6,1.2,5.4,3.6,6c1.1,6.2,3.7,13.9,13.4,19.4c0.1,0.1,0.3,0.1,0.4,0.2c0.1,21.7,13.8,40.3,33,47.7
		c-0.5,2.3-1.9,10.2,2.1,13.9c1.9,1.8,4.7,2.3,8.3,1.4c0.2,1.8,0.7,4.1,2.2,5.3c0.6,0.5,1.4,0.8,2.3,0.8c0.1,0,0.3,0,0.4,0
		c1.1-0.1,1.9-0.6,2.3-1.4c0.9-1.7,0.2-4.7-2.1-9l-0.1-0.2c-0.3-0.6-1.1-0.9-2.1-0.9c-1.2,0-2.2,0.6-2.7,1.6c-2.9,0.9-5,0.8-6.2-0.3
		c-2.3-2.1-1.7-7.5-1.2-10.2c4.7,1.4,9.8,2.2,15,2.2c4.8,0,9.5-0.7,13.9-1.9c-0.5,3.2-1,9.4,2.4,12.5c1.9,1.8,4.7,2.3,8.3,1.4
		c0.2,1.8,0.7,4.1,2.2,5.3c0.6,0.5,1.4,0.8,2.3,0.8c0.1,0,0.3,0,0.4,0c1.1-0.1,1.9-0.6,2.3-1.4c0.9-1.7,0.2-4.7-2.1-9l-0.1-0.2
		c-0.3-0.6-1.1-0.9-2.1-0.9c-1.2,0-2.2,0.6-2.7,1.6c-2.9,0.9-5,0.8-6.2-0.3c-2.5-2.3-1.6-8.8-1-11.1c0,0,0-0.1,0-0.1
		c18.9-7,32.6-24.8,33.5-45.9c0.1,0,0.2-0.1,0.2-0.2c2.6-2.2,7.5-5.1,9.5-4.2c1,0.4,1.5,2.1,1.5,4.6l-0.2,4
		c-2.2-0.3-3.2,0.3-3.5,0.8c-0.4,0.6-0.4,1.4,0,2.2c0.4,0.7,0.8,1.1,1.4,1.3c0.2,0.1,0.4,0.1,0.6,0c-0.3,0.7-0.8,2-0.5,3.1
		c0.2,0.8,0.8,1.4,1.7,1.9c0.4,0.2,1,0.3,1.7,0.3c1,0,2-0.3,2.5-1.4C279.4,65.1,281.1,60.9,278.6,58.8z M213,99.6
		c-26.7,0-48.4-21.7-48.4-48.3c0-26.7,21.7-48.4,48.4-48.4c26.7,0,48.4,21.7,48.4,48.4C261.3,77.9,239.7,99.6,213,99.6z"/>
	<path class="st2" d="M213,33.9c-9.6,0-17.3,7.8-17.3,17.3c0,9.5,7.8,17.3,17.3,17.3c9.5,0,17.3-7.8,17.3-17.3
		C230.3,41.7,222.5,33.9,213,33.9z M213,65.7c-8,0-14.4-6.5-14.4-14.4c0-8,6.5-14.4,14.4-14.4c7.9,0,14.4,6.5,14.4,14.4
		C227.4,59.2,220.9,65.7,213,65.7z"/>
</g>
<path class="st9" d="M234.8,24.9c-0.6,0-1.1-0.3-1.3-0.9l-1.7-3.9c-0.3-0.7,0-1.6,0.7-1.9c0.7-0.3,1.6,0,1.9,0.7l1.7,3.9
	c0.3,0.7,0,1.6-0.7,1.9C235.2,24.9,235,24.9,234.8,24.9z"/>
<path class="st10" d="M223.3,12h-4.2c-0.8,0-1.5-0.7-1.5-1.5s0.7-1.5,1.5-1.5h4.2c0.8,0,1.5,0.7,1.5,1.5S224.1,12,223.3,12z"/>
<path class="st9" d="M182.3,27.6c-0.4,0-0.8-0.2-1.1-0.5l-2.8-3.2c-0.5-0.6-0.5-1.5,0.1-2.1c0.6-0.5,1.5-0.5,2.1,0.1l2.8,3.2
	c0.5,0.6,0.5,1.5-0.1,2.1C183,27.5,182.7,27.6,182.3,27.6z"/>
<path class="st11" d="M170.9,43.8c-0.7,0-1.2-0.4-1.4-1.1l-1-4.1c-0.2-0.8,0.3-1.6,1.1-1.8c0.8-0.2,1.6,0.3,1.8,1.1l1,4.1
	c0.2,0.8-0.3,1.6-1.1,1.8C171.1,43.8,171,43.8,170.9,43.8z"/>
<path class="st10" d="M197.8,29.2h-4.2c-0.8,0-1.5-0.7-1.5-1.5s0.7-1.5,1.5-1.5h4.2c0.8,0,1.5,0.7,1.5,1.5S198.6,29.2,197.8,29.2z"
	/>
<path class="st11" d="M215,25.7c-0.6,0-1.2-0.4-1.4-1l-1.3-4c-0.3-0.8,0.2-1.6,0.9-1.8c0.8-0.3,1.6,0.2,1.8,0.9l1.3,4
	c0.3,0.8-0.2,1.6-0.9,1.8C215.3,25.7,215.1,25.7,215,25.7z"/>
<path class="st12" d="M195.9,17.6c-0.5,0-1.1-0.3-1.3-0.8c-0.3-0.7,0-1.6,0.7-1.9l3.8-1.8c0.7-0.3,1.6,0,1.9,0.7
	c0.3,0.7,0,1.6-0.7,1.9l-3.8,1.8C196.3,17.5,196.1,17.6,195.9,17.6z"/>
<path class="st12" d="M237.3,43.9c-0.8,0-1.5-0.7-1.5-1.5v-4.2c0-0.8,0.7-1.5,1.5-1.5s1.5,0.7,1.5,1.5v4.2
	C238.8,43.2,238.2,43.9,237.3,43.9z"/>
<path class="st11" d="M245.3,31.3c-0.4,0-0.7-0.1-1-0.4c-0.6-0.6-0.6-1.5,0-2.1l2.9-3.1c0.6-0.6,1.5-0.6,2.1,0
	c0.6,0.6,0.6,1.5,0,2.1l-2.9,3.1C246.1,31.2,245.7,31.3,245.3,31.3z"/>
<path class="st10" d="M252.6,50.2c-0.5,0-0.9-0.2-1.2-0.6l-2.4-3.5c-0.5-0.7-0.3-1.6,0.4-2c0.7-0.5,1.6-0.3,2,0.4l2.4,3.5
	c0.5,0.7,0.3,1.6-0.4,2C253.2,50.1,252.9,50.2,252.6,50.2z"/>
<path class="st13" d="M41.8,147.1l89-17.3c6.9-1.3,8.6-2.9,7.8-7.1l-1.2-5.9L30.7,137.5l1.2,5.9C32.7,147.6,34.9,148.5,41.8,147.1z"
	/>
<g>
	<polygon class="st3" points="131.6,86.5 129.6,86.9 24.8,107.2 30.7,137.5 137.5,116.8 	"/>
</g>
<path class="st14" d="M131.6,86.5l-1.1-5.7c-0.2-1.2-0.6-2.3-1.2-3.4c-2.1-0.8-5.1-0.2-8.4,0.5c-1.6,0.3-87.5,16.9-88.9,17.3
	c-4.4,0.8-8,1.3-8.5,4.6c0,0.6,0.1,1.2,0.2,1.7l1.1,5.7l104.8-20.4L131.6,86.5z"/>
<path class="st15" d="M37.8,91.6c-0.2,0-0.4,0.1-0.6,0c-1.3-0.1-2.2-1.2-2.1-2.5c0.1-0.7,0.7-6.7,5.3-8.1c1.2-0.4,2.5,0.3,2.9,1.5
	c0.4,1.2-0.3,2.5-1.5,2.9c-1.3,0.4-2,3.1-2.1,4.1C39.6,90.6,38.8,91.5,37.8,91.6z"/>
<path class="st2" d="M68.4,114.1c-1.7,0.4-3.5-0.7-3.9-2.5c-0.4-1.8,0.7-3.5,2.5-3.9c1.8-0.4,3.5,0.7,3.9,2.5
	C71.2,112,70.1,113.7,68.4,114.1z M93.4,105.3c-0.4-1.8-2.1-2.9-3.9-2.5c-1.8,0.4-2.9,2.1-2.5,3.9c0.4,1.8,2.1,2.9,3.9,2.5
	C92.7,108.8,93.8,107,93.4,105.3z M87.1,111c-0.1-0.3-1.7-0.2-3.6,0.2l-7.5,1.7c-1.9,0.4-3.4,1-3.4,1.3c0,0,0,0,0.1,0.3
	c0.7,3.3,4.6,5.3,8.6,4.4c4-0.9,6.7-4.3,5.9-7.6C87.1,111,87.1,111,87.1,111z"/>
<path class="st5" d="M83.7,116.2c0.1,0.5-1.1,1.2-2.7,1.6c-1.6,0.4-3,0.2-3.2-0.3c-0.1-0.5,0.1-2.3,2.5-2.8
	C82.9,114.1,83.6,115.7,83.7,116.2z"/>
<g>
	<path class="st16" d="M93.6,51.8L93.6,51.8L93.6,51.8L93.6,51.8L93.6,51.8c-4.9-1.2-14.4-2.2-15.5,7.7c-1.2,9.9,4.4,17.4,9.1,18.6
		l0,0l0,0l0,0l0,0c4.8,1.1,13.1-3.1,16.6-12.4C107.4,56.4,98.4,53,93.6,51.8L93.6,51.8z"/>
	<path class="st17" d="M86.7,60.2c-0.3,0.1-0.5,0.2-0.6,0.5c-0.1,0.4-0.2,2.4,0.3,2.5c0,0,0.1,0,0.1,0c0.5-0.1,1.2-1.7,1.3-2.1
		c0.1-0.4-0.2-0.8-0.7-0.9C86.9,60.1,86.8,60.1,86.7,60.2L86.7,60.2z"/>
	<path class="st17" d="M80.3,58.6c-0.3,0.1-0.5,0.2-0.6,0.5c-0.1,0.4-0.2,2.4,0.3,2.5c0,0,0.1,0,0.1,0c0.5-0.1,1.2-1.7,1.3-2.1
		c0.1-0.4-0.2-0.8-0.7-0.9C80.6,58.6,80.5,58.6,80.3,58.6L80.3,58.6z"/>
	<path class="st17" d="M93,61.7c-0.3,0.1-0.5,0.2-0.6,0.5c-0.1,0.4-0.2,2.4,0.3,2.5c0,0,0.1,0,0.1,0c0.5-0.1,1.2-1.7,1.3-2.1
		c0.1-0.4-0.2-0.8-0.7-0.9C93.3,61.7,93.1,61.6,93,61.7L93,61.7z"/>
	<path class="st17" d="M84.2,70.3c-0.3,0.1-0.5,0.2-0.6,0.5c-0.1,0.4-0.2,2.4,0.3,2.5c0,0,0.1,0,0.1,0c0.5-0.1,1.2-1.7,1.3-2.1
		c0.1-0.4-0.2-0.8-0.7-0.9C84.5,70.3,84.3,70.3,84.2,70.3L84.2,70.3z"/>
	<path class="st17" d="M90.6,71.8c-0.3,0.1-0.5,0.2-0.6,0.5c-0.1,0.4-0.2,2.4,0.3,2.5c0,0,0.1,0,0.1,0c0.5-0.1,1.2-1.7,1.3-2.1
		c0.1-0.4-0.2-0.8-0.7-0.9C90.8,71.8,90.7,71.8,90.6,71.8L90.6,71.8z"/>
	<path class="st17" d="M99.3,63.2c-0.3,0.1-0.5,0.2-0.6,0.5c-0.1,0.4-0.2,2.4,0.3,2.5c0,0,0.1,0,0.1,0c0.5-0.1,1.2-1.7,1.3-2.1
		c0.1-0.4-0.2-0.8-0.7-0.9C99.6,63.2,99.5,63.2,99.3,63.2L99.3,63.2z"/>
	<path class="st17" d="M95.4,67.2c-0.3,0.1-0.5,0.2-0.6,0.5c-0.1,0.4-0.2,2.4,0.3,2.5c0,0,0.1,0,0.1,0c0.5-0.1,1.2-1.7,1.3-2.1
		c0.1-0.4-0.2-0.8-0.7-0.9C95.6,67.2,95.5,67.2,95.4,67.2L95.4,67.2z"/>
	<path class="st17" d="M82.2,64.1c-0.3,0.1-0.5,0.2-0.6,0.5c-0.1,0.4-0.2,2.4,0.3,2.5c0,0,0.1,0,0.1,0c0.5-0.1,1.2-1.7,1.3-2.1
		c0.1-0.4-0.2-0.8-0.7-0.9C82.5,64.1,82.3,64,82.2,64.1L82.2,64.1z"/>
	<path class="st17" d="M97.8,57c-0.3,0.1-0.5,0.2-0.6,0.5c-0.1,0.4-0.2,2.4,0.3,2.5c0,0,0.1,0,0.1,0c0.5-0.1,1.2-1.7,1.3-2.1
		c0.1-0.4-0.2-0.8-0.7-0.9C98.1,56.9,98,56.9,97.8,57L97.8,57z"/>
	<path class="st17" d="M84.7,53.8c-0.3,0.1-0.5,0.2-0.6,0.5c-0.1,0.4-0.2,2.4,0.3,2.5c0,0,0.1,0,0.1,0c0.5-0.1,1.2-1.7,1.3-2.1
		c0.1-0.4-0.2-0.8-0.7-0.9C84.9,53.8,84.8,53.8,84.7,53.8L84.7,53.8z"/>
	<path class="st18" d="M95.2,51.1c0,2.7-2,4.9-2.7,4.9c-0.8,0-2.6-2.2-2.6-4.9c0-2.7,1.9-4.9,2.7-4.9C93.1,46.2,95.2,48.4,95.2,51.1
		L95.2,51.1z"/>
	<path class="st19" d="M93,50.3c1.2,2.4,0.3,5.3-0.3,5.5c-0.7,0.3-3.3-0.8-4.5-3.2c-1.2-2.4-0.4-5.2,0.3-5.5
		C89,46.8,91.8,47.9,93,50.3L93,50.3z"/>
	<path class="st20" d="M95.1,52.2c-0.4,2.1-1.9,3.6-2.5,3.7c0,0-0.1,0-0.1,0c0,0-0.1,0-0.1,0c-0.1,0-0.1,0-0.2,0c0,0,0,0,0,0
		c0.1,0,0.3,0.1,0.5,0c1-0.2,2.9-1.3,3.8-3.2C96.1,52.5,95.6,52.4,95.1,52.2L95.1,52.2z"/>
	<path class="st21" d="M94.2,47.7c-0.6,0.4-1.2,1-1.7,1.7c0.2,0.3,0.4,0.6,0.6,0.9c1.2,2.4,0.3,5.3-0.3,5.5c0,0-0.1,0-0.1,0
		c-0.1,0-0.1,0-0.2,0c0,0,0.1,0,0.1,0c0,0,0,0,0.1,0c0.6-0.1,2-1.7,2.5-3.7c0.1-0.4,0.1-0.7,0.1-1.1C95.2,49.8,94.7,48.6,94.2,47.7
		L94.2,47.7z"/>
	<path class="st22" d="M92.4,49.4c-0.2,0.3-0.4,0.6-0.6,1c-1.1,2.4-0.3,5.1,0.4,5.5c0.1,0,0.1,0,0.2,0c0.1,0,0.1,0,0.2,0
		c0.1,0,0.1,0,0.1,0c0.6-0.3,1.4-3.1,0.3-5.5C92.8,50,92.6,49.7,92.4,49.4L92.4,49.4z"/>
	<path class="st19" d="M97.7,54.6c-2,1.8-5,1.7-5.4,1.2c-0.5-0.6-0.1-3.4,2-5.2c2-1.8,4.9-1.7,5.4-1.2C100,49.8,99.7,52.9,97.7,54.6
		z"/>
</g>
<path class="st23" d="M279.9,14.5c-1.3,0.5-2.3,1-3,1.4c-0.8,0.4-1.3,0.8-1.8,1.3c-0.4,0.4-0.8,1-1.3,1.8c-0.4,0.8-0.9,1.8-1.4,3.1
	H272c-0.5-1.3-1-2.3-1.5-3.1c-0.4-0.8-0.8-1.3-1.2-1.8c-0.4-0.4-1-0.8-1.8-1.3c-0.8-0.4-1.8-0.9-3.1-1.4V14c1.3-0.5,2.3-1,3.1-1.4
	c0.8-0.4,1.3-0.8,1.8-1.3c0.4-0.4,0.8-1,1.2-1.8c0.4-0.8,0.9-1.8,1.5-3.1h0.4c0.5,1.3,1,2.3,1.4,3.1c0.4,0.8,0.8,1.3,1.3,1.8
	c0.4,0.4,1,0.8,1.7,1.3c0.8,0.4,1.8,0.9,3.1,1.4V14.5z M115.5,19.3c-1.4-0.6-2.5-1.1-3.4-1.6c-0.8-0.5-1.5-0.9-1.9-1.4
	c-0.5-0.5-0.9-1.1-1.4-1.9c-0.5-0.8-1-2-1.6-3.4h-0.5c-0.6,1.4-1.1,2.6-1.6,3.4c-0.5,0.8-0.9,1.5-1.4,1.9c-0.5,0.5-1.1,0.9-1.9,1.4
	c-0.8,0.5-2,1-3.4,1.6v0.5c1.4,0.6,2.5,1.1,3.4,1.6c0.8,0.5,1.5,0.9,1.9,1.4c0.5,0.5,0.9,1.1,1.4,1.9c0.5,0.8,1,2,1.6,3.4h0.5
	c0.6-1.4,1.1-2.6,1.6-3.4c0.5-0.8,0.9-1.5,1.4-1.9c0.5-0.5,1.1-0.9,1.9-1.4c0.8-0.5,2-1,3.4-1.6V19.3z M68,37.7
	c-0.8-0.3-1.5-0.6-1.9-0.9c-0.5-0.3-0.9-0.5-1.1-0.8c-0.3-0.3-0.5-0.6-0.8-1.1c-0.3-0.5-0.6-1.1-0.9-2h-0.3c-0.3,0.8-0.7,1.5-0.9,2
	c-0.3,0.5-0.5,0.8-0.8,1.1c-0.3,0.3-0.6,0.5-1.1,0.8c-0.5,0.3-1.1,0.6-1.9,0.9V38c0.8,0.3,1.5,0.6,1.9,0.9c0.5,0.3,0.9,0.5,1.1,0.8
	c0.3,0.3,0.5,0.6,0.8,1.1c0.3,0.5,0.6,1.1,0.9,2h0.3c0.3-0.8,0.6-1.5,0.9-2c0.3-0.5,0.5-0.8,0.8-1.1c0.3-0.3,0.6-0.5,1.1-0.8
	c0.5-0.3,1.1-0.6,1.9-0.9V37.7z M265.6,98.4c-0.8-0.3-1.5-0.6-1.9-0.9c-0.5-0.3-0.9-0.5-1.1-0.8c-0.3-0.3-0.5-0.6-0.8-1.1
	c-0.3-0.5-0.6-1.1-0.9-2h-0.3c-0.3,0.8-0.7,1.5-0.9,2c-0.3,0.5-0.5,0.8-0.8,1.1c-0.3,0.3-0.6,0.5-1.1,0.8c-0.5,0.3-1.1,0.6-1.9,0.9
	v0.3c0.8,0.3,1.5,0.6,1.9,0.9c0.5,0.3,0.9,0.5,1.1,0.8c0.3,0.3,0.5,0.6,0.8,1.1c0.3,0.5,0.6,1.1,0.9,2h0.3c0.3-0.8,0.6-1.5,0.9-2
	c0.3-0.5,0.5-0.8,0.8-1.1c0.3-0.3,0.6-0.5,1.1-0.8c0.5-0.3,1.1-0.6,1.9-0.9V98.4z M143,55.5c-0.7-0.3-1.2-0.5-1.6-0.8
	c-0.4-0.2-0.7-0.4-0.9-0.7c-0.2-0.2-0.4-0.5-0.7-0.9c-0.2-0.4-0.5-0.9-0.8-1.6h-0.2c-0.3,0.7-0.5,1.2-0.8,1.6
	c-0.2,0.4-0.4,0.7-0.7,0.9c-0.2,0.2-0.5,0.4-0.9,0.7c-0.4,0.2-0.9,0.5-1.6,0.8v0.2c0.7,0.3,1.2,0.5,1.6,0.8c0.4,0.2,0.7,0.4,0.9,0.7
	c0.2,0.2,0.4,0.5,0.7,0.9c0.2,0.4,0.5,0.9,0.8,1.6h0.2c0.3-0.7,0.5-1.2,0.8-1.6c0.2-0.4,0.4-0.7,0.7-0.9c0.2-0.2,0.5-0.4,0.9-0.7
	c0.4-0.2,0.9-0.5,1.6-0.8V55.5z M36.8,10.6c-1.8-0.7-3.2-1.4-4.3-2c-1.1-0.6-1.9-1.2-2.5-1.8c-0.6-0.6-1.2-1.4-1.8-2.5
	c-0.6-1.1-1.3-2.5-2-4.3h-0.6c-0.8,1.8-1.5,3.3-2,4.3s-1.2,1.9-1.7,2.5c-0.6,0.6-1.4,1.2-2.5,1.8c-1.1,0.6-2.5,1.3-4.3,2v0.6
	c1.8,0.7,3.2,1.4,4.3,2c1.1,0.6,1.9,1.2,2.5,1.8c0.6,0.6,1.2,1.4,1.7,2.5s1.3,2.5,2,4.3h0.6c0.8-1.8,1.4-3.3,2-4.3
	c0.6-1.1,1.2-1.9,1.8-2.5c0.6-0.6,1.4-1.2,2.5-1.8c1.1-0.6,2.5-1.3,4.3-2V10.6z M18.5,62.3c-1.3-0.5-2.3-1-3.1-1.4
	c-0.8-0.4-1.3-0.8-1.7-1.3c-0.4-0.4-0.8-1-1.3-1.8c-0.4-0.8-0.9-1.8-1.4-3.1h-0.4c-0.5,1.3-1,2.3-1.5,3.1c-0.4,0.8-0.8,1.3-1.2,1.8
	c-0.4,0.4-1,0.8-1.8,1.3c-0.8,0.4-1.8,0.9-3.1,1.4v0.4c1.3,0.5,2.3,1,3.1,1.4c0.8,0.4,1.3,0.8,1.8,1.3c0.4,0.4,0.8,1,1.2,1.8
	c0.4,0.8,0.9,1.8,1.5,3.1H11c0.5-1.3,1-2.3,1.4-3.1c0.4-0.8,0.8-1.3,1.3-1.8c0.4-0.4,1-0.8,1.8-1.3s1.8-0.9,3-1.4V62.3z"/>
<path class="st5" d="M215.6,83.3c0,0.4-1.1,0.8-2.4,0.9c-1.4,0-2.5-0.3-2.5-0.7c0-0.4,0.5-1.8,2.4-1.9
	C215.2,81.5,215.6,82.9,215.6,83.3z"/>
</svg>
