<svg version="1.1" id="Layer_1" xmlns="http://www.w3.org/2000/svg" x="0" y="0" viewBox="0 0 210.6 190.5" xml:space="preserve"><style>.st0{fill:#26c4b5}.st5,.st7{fill:#fff}.st7{opacity:.5}.st8{fill:#08a697}</style><path class="st0" d="M185.1 160.9c0 5.7-35.7 10.4-79.8 10.4s-79.8-4.6-79.8-10.4 35.7-10.4 79.8-10.4 79.8 4.7 79.8 10.4zm-14.3 29.6c4.1 0 7.4-1.5 7.4-3.3 0-1.8-3.3-3.3-7.4-3.3s-7.4 1.5-7.4 3.3c-.1 1.9 3.3 3.3 7.4 3.3m27.5-11.4c6.8 0 12.3-2.4 12.3-5.5s-5.5-5.5-12.3-5.5c-6.8 0-12.3 2.4-12.3 5.5s5.6 5.5 12.3 5.5"/><path d="M207.6 2.9C203.7-1 197.3-1 193.4 3l-22.2 22.3 14.2 14.2 22.2-22.3c4-4 4-10.4 0-14.3z" fill="#f3c570"/><path d="M205.2 62.1c-.7-2.6-2-4.9-3.9-6.8L155.7 9.8c-2.8-2.8-6.6-4.4-10.6-4.4s-7.7 1.6-10.6 4.4L56.1 88.6c-11.8 11.8-16.4 29.1-12.2 45.2 2.1 8.1 6.4 15.5 12.3 21.4.2.2.3.3.5.4h7.6c-1.6-1.2-3.1-2.5-4.6-4-5.3-5.3-9.1-11.9-11-19.1-3.8-14.4.4-29.9 10.9-40.5l78.5-78.8c1.9-1.9 4.4-2.9 7-2.9 2.7 0 5.2 1 7 2.9l45.6 45.5c1.3 1.3 2.2 2.8 2.6 4.5.9 3.4-.1 7.1-2.6 9.6l-78.5 78.8c-1.5 1.5-3 2.8-4.7 4.1h7.6c.2-.2.4-.4.6-.5l78.5-78.8c3.9-3.7 5.4-9.2 4-14.3z" fill="#1e0e00"/><path class="st0" d="M200.4 63.3c-.4-1.7-1.3-3.3-2.6-4.5l-45.6-45.5c-1.9-1.9-4.4-2.9-7-2.9-2.7 0-5.2 1-7 2.9L59.6 92.1c-10.5 10.5-14.7 26.1-10.9 40.5 1.9 7.2 5.7 13.8 11 19.1 1.4 1.4 3 2.8 4.6 4h50.4c1.6-1.2 3.2-2.6 4.7-4.1l41.4-41.6v15.3a6.7 6.7 0 0013.4 0V96.6l23.6-23.7c2.5-2.5 3.5-6.2 2.6-9.6z"/><path d="M121.3 67.7c.4-.3 2.8 1.2 5.3 3.5l10 9.1c2.5 2.3 4.3 4.5 4 4.9l-.3.4c-4 4.4-11.6 4.1-16.9-.8-5.3-4.8-6.4-12.4-2.3-16.8l.2-.3zm-11.9 3.6h-2.2v-2.2c0-1.2-1-2.2-2.2-2.2-1.2 0-2.2 1-2.2 2.3v2.2h-2.2c-1.2 0-2.2 1-2.2 2.3 0 1.2 1 2.2 2.2 2.2h2.2v2.2c0 1.2 1 2.2 2.2 2.2 1.2 0 2.2-1 2.2-2.3v-2.2h2.2c1.2 0 2.2-1 2.2-2.3.1-1.2-1-2.2-2.2-2.2zm29 28.8h-2.2v-2.2c0-1.2-1-2.2-2.2-2.2-1.2 0-2.2 1-2.2 2.3v2.2h-2.2c-1.2 0-2.2 1-2.2 2.3 0 1.2 1 2.2 2.2 2.2h2.2v2.2c0 1.2 1 2.2 2.2 2.2 1.2 0 2.2-1 2.2-2.3v-2.2h2.2c1.2 0 2.2-1 2.2-2.3 0-1.2-1-2.2-2.2-2.2z" fill="#1c1a1a"/><path class="st5" d="M77.2 93c-.1-.5-.3-.9-.6-1.3-1.2-1.5-3.3-1.7-4.8-.6-7.3 5.8-12.4 14-14.4 23.2-.4 1.9.8 3.7 2.6 4.1 1.9.4 3.7-.8 4.1-2.6 1.6-7.6 5.9-14.4 11.9-19.2 1.1-.9 1.6-2.3 1.2-3.6zM63.6 127c-.4-1.7-2-2.8-3.8-2.5-1.9.3-3.2 2-3 3.9.3 2.2.8 4.5 1.5 6.6.6 1.8 2.5 2.8 4.3 2.3 1.8-.6 2.9-2.5 2.3-4.3-.6-1.8-1-3.6-1.2-5.5-.1-.2-.1-.3-.1-.5z"/><path d="M127.3 80.7c3.4 3 5.9 1.3 6.5.6.3-.3.5-.5.7-.8l-7.9-7-.7.7c-.6.8-1.8 3.7 1.4 6.5z" fill="#ff5363"/><path class="st7" d="M43.5 15.3c-2.6-1.1-4.7-2-6.3-2.9-1.5-.9-2.7-1.7-3.6-2.6-.8-.8-1.7-2-2.6-3.6-.9-1.5-1.8-3.6-2.9-6.3h-.9c-1.1 2.7-2.1 4.8-3 6.3-.9 1.5-1.7 2.7-2.5 3.6-.8.8-2 1.7-3.6 2.6-1.5.9-3.6 1.8-6.3 2.9v.9c2.6 1.1 4.7 2 6.2 2.9 1.5.9 2.7 1.7 3.6 2.6.8.8 1.7 2 2.5 3.6.9 1.5 1.9 3.6 3 6.3h.9c1.1-2.7 2.1-4.8 2.9-6.3.9-1.5 1.7-2.7 2.6-3.6.9-.8 2.1-1.7 3.6-2.6 1.5-.9 3.6-1.8 6.2-2.9v-.9zM20.8 69.5c-1.7-.7-3.1-1.4-4.1-1.9-1-.6-1.8-1.1-2.4-1.7-.6-.6-1.1-1.3-1.7-2.4-.6-1-1.2-2.4-1.9-4.2h-.6c-.7 1.8-1.4 3.2-2 4.2-.6 1-1.1 1.8-1.7 2.4-.6.6-1.3 1.1-2.4 1.7-1 .6-2.4 1.2-4.1 1.9v.6C1.6 70.8 3 71.5 4 72c1 .6 1.8 1.1 2.4 1.7.6.6 1.1 1.3 1.7 2.4.6 1 1.2 2.4 2 4.2h.6c.7-1.8 1.4-3.2 1.9-4.2.6-1 1.1-1.8 1.7-2.4.6-.6 1.4-1.1 2.4-1.7 1-.6 2.4-1.2 4.1-1.9v-.6zM63.6 46.5c-1-.4-1.8-.8-2.4-1.1-.6-.3-1.1-.7-1.4-1-.3-.3-.7-.8-1-1.4-.3-.6-.7-1.4-1.1-2.4h-.3c-.4 1-.8 1.8-1.1 2.4-.3.6-.7 1.1-1 1.4-.3.3-.8.7-1.4 1-.6.3-1.4.7-2.4 1.1v.3c1 .4 1.8.8 2.4 1.1.6.3 1.1.7 1.4 1 .3.3.6.8 1 1.4.3.6.7 1.4 1.1 2.4h.3c.4-1 .8-1.8 1.1-2.4.3-.6.7-1.1 1-1.4.3-.3.8-.7 1.4-1 .6-.3 1.4-.7 2.4-1.1v-.3z"/><g><path class="st8" d="M99.3 155.7h15.3c1.6-1.2 3.2-2.6 4.7-4.1l41.4-41.6V98L112 146.8c-3.8 3.8-8.1 6.8-12.7 8.9zM200.7 66c0-.9-.1-1.8-.3-2.6-.4-1.7-1.3-3.3-2.6-4.5l-4.7-4.7c2.1 4.6 1.2 10.1-2.5 13.9l-16.4 16.5v12.2l13.1-13.1v18.9a6.7 6.7 0 0013.4 0V66z"/></g></svg>