<svg xmlns="http://www.w3.org/2000/svg" viewBox="0 0 330 59.7">
<!-- viewBox="0 0 330 59.7" -->
<path d="M153.1 49.6l-1.8-33.2c-.1-2.7-.6-4.3-1.9-5.8-1.3-1.6-3.5-2.8-5.5-3-3.1-.3-6.3 1.1-7.9 3.6l-10.4 16.7-5.4-17.6c-1-3.6-4.1-6.2-7.6-6.6-4.3-.5-7.7 2.1-9.1 6.8l-5.3 17.3v-1.3c0-14.3-11.8-26-26.3-26-13.5 0-24.3 9.5-26 22.3l-1.1-9.3c-.4-3.1-1.1-4.8-2.8-6.4-1.8-1.7-4.2-2.5-6.7-2.2-2.7.3-5.2 2.1-6.4 4.5-1 1.9-1.1 3.4-.7 6.8l1.3 9.4L14.3 11c-2.2-2.1-4.2-2.9-6.6-2.6C2.5 9-.6 13 .1 18.4L4 50.2c.5 3.7 1 5.2 2.6 6.9 1.8 1.8 4.5 2.7 7 2.4 2.5-.3 4.7-1.7 6-3.8 1.2-2 1.5-3.6 1.1-6.9l-1.3-10.6 15.2 15.2c2 2.1 4.3 2.9 7 2.6 2.6-.3 4.8-1.7 6.1-3.9 1.2-2.1 1.4-3.8.9-7.8l-1-7.9C51.5 46 60.8 52.7 72 52.7c9.5 0 17.8-5 22.4-12.6l-.6 1.9c-.2.7-.3 1.3-.4 2-.6 5.3 2.4 9.5 7.3 10.1 4.3.5 7.9-2.1 9.3-6.8l2.3-7.8 2.2 9.4c1.1 4.9 3.5 7.3 7.6 7.8 3.9.5 7.2-1.5 9.4-5.8l4.3-8.5.7 9.7c.3 3.9 3.3 6.9 7.5 7.4 4.5.5 8.5-2.6 9.1-7.1.1-.7.1-1.7 0-2.8zM71.9 37.2c-5.8 0-10.5-4.8-10.5-10.6 0-5.6 4.7-10.2 10.5-10.2S82.4 21 82.4 26.7c0 5.7-4.8 10.5-10.5 10.5zm258 12.5l-1.8-33.2c-.1-2.8-.6-4.3-1.9-5.8s-3.4-2.7-5.5-3c-3.1-.4-6.3 1.1-7.9 3.6L302.4 28 297 10.4c-1-3.6-4.1-6.2-7.6-6.6-4.3-.5-7.7 2-9.1 6.8l-5.2 17v-1.1c0-14.3-11.8-26-26.3-26-13.3 0-24.2 9.7-26 22.3l-1.1-9.2c-.4-3.1-1.1-4.8-2.8-6.4-1.8-1.7-4.2-2.5-6.7-2.2-2.7.3-5.2 2.1-6.4 4.5-1 1.9-1.1 3.4-.7 6.8l1.3 9.3L191.2 11c-2.2-2.1-4.2-2.9-6.6-2.6-5.2.6-8.2 4.6-7.6 10l3.9 31.9c.5 3.7 1 5.2 2.6 6.9 1.8 1.8 4.5 2.7 7 2.4s4.7-1.7 6-3.8c1.2-2 1.5-3.6 1.1-6.9l-1.3-10.6 15.2 15.2c2 2.1 4.3 2.9 7 2.6 2.6-.3 4.8-1.7 6.1-3.9 1.2-2.1 1.4-3.8.9-7.8l-1-8.1c3.9 9.7 13.2 16.4 24.4 16.4 9.4 0 17.6-5 22.3-12.4l-.6 1.8c-.2.7-.3 1.3-.4 2-.6 5.3 2.4 9.5 7.3 10.1 4.3.5 7.8-2 9.3-6.8l2.3-7.8 2.2 9.4c1.2 4.9 3.5 7.3 7.6 7.8 3.9.5 7.2-1.5 9.4-5.8l4.3-8.5.7 9.7c.2 3.9 3.2 6.8 7.5 7.4 4.5.6 8.6-2.5 9.1-7.1.1-.8.1-1.7 0-2.8zm-81-12.5c-5.8 0-10.5-4.8-10.5-10.6 0-5.6 4.7-10.2 10.5-10.2s10.5 4.6 10.5 10.3c-.1 5.7-4.9 10.5-10.5 10.5z" fill="#fff"/><path d="M71.9 0C57 0 45.2 11.7 45.2 26.3c0 15 11.9 26.9 26.8 26.9 14.7 0 26.7-12 26.7-26.7C98.7 11.9 86.7 0 71.9 0zm0 36.7c-5.5 0-10-4.6-10-10.1 0-5.4 4.5-9.7 10-9.7s10 4.4 10 9.8-4.5 10-10 10z" fill="#8d4794"/><path d="M248.8 0c-14.8 0-26.7 11.7-26.7 26.3 0 15 11.9 26.9 26.8 26.9 14.7 0 26.7-12 26.7-26.7 0-14.6-12-26.5-26.8-26.5zm.1 36.7c-5.5 0-10-4.6-10-10.1 0-5.4 4.5-9.7 10-9.7s10 4.4 10 9.8c-.1 5.4-4.6 10-10 10z" fill="#26c3b4"/></svg>