<svg xmlns="http://www.w3.org/2000/svg" viewBox="0 0 90 90"><path d="M6.3 48.6s0 .1 0 0V81.5c0 .5.2.9.6 1.2.3.2.7.4 1 .4h.3L82.4 70c.8-.1 1.3-.8 1.3-1.6V35.7v-.2l-.1-.2v-.1-.1-.1-.2c-4.4-4.5-9.5-8.2-15.1-10.9-2.1-1-4.3-1.9-6.5-2.7l-.6-.2-.1-.2c-.7-2.4-2.4-4.5-4.7-5.7l-.3-.2.1-.3c.5-1.3 1.4-2.4 2.5-3.2 2.8-2 5.9-1.3 6.5-1.1.4.1.9.1 1.2-.2.4-.2.6-.6.8-1 .1-.4.1-.9-.2-1.2-.2-.4-.6-.6-1-.8-.9-.2-5.3-1.3-9.3 1.6-1.7 1.2-3 2.9-3.8 5l.2.3h-1.1c-5.3 0-9.6 4.3-9.6 9.6s4.3 9.6 9.6 9.6c2.3 0 4.5-.8 6.3-2.3 1.7-1.5 2.9-3.5 3.2-5.8l.1-.5.4.2c1.5.6 3 1.2 4.5 1.9 4.1 2 8 4.6 11.4 7.6l.6.5L14.9 46l22.8-15.8c.4-.2.6-.6.7-1 .1-.4 0-.9-.3-1.2-.5-.7-1.5-.9-2.3-.4L7 47.5l-.1.1-.1.1s0 .1-.1.1V48.1l-.4.5zm45.9-18.8c-3.5 0-6.3-2.8-6.3-6.3s2.8-6.3 6.3-6.3h.5v.4c0 .5 0 1 .1 1.5.1.8.8 1.4 1.6 1.4h.2c.7-.1 1.3-.6 1.4-1.3l.1-.7.5.5c1.2 1.2 1.9 2.8 1.9 4.6 0 3.4-2.8 6.2-6.3 6.2zM9.5 50.2l.3-.1 70.6-12.5v10.6l-.4-.1c-.3-.1-.5-.2-.8-.4-1.1-.5-2.6-1.3-5-.9s-3.5 1.6-4.4 2.5c-.8.8-1.2 1.3-2.6 1.5-1.3.2-2-.1-2.9-.6-1.1-.5-2.6-1.3-5-.9s-3.5 1.6-4.4 2.5c-.8.8-1.2 1.3-2.6 1.5-1.3.2-2-.1-2.9-.6-1.1-.5-2.6-1.3-5-.9s-3.5 1.6-4.4 2.5c-.8.8-1.2 1.3-2.6 1.5-1.3.2-2-.1-2.9-.6-1.1-.5-2.6-1.3-5-.9s-3.5 1.6-4.4 2.5c-.7.8-1.2 1.3-2.6 1.5-1.3.2-2-.1-2.9-.6-1.1-.5-2.6-1.3-5-.9s-3.5 1.6-4.4 2.5l-.3.3-.6.6v-10zm0 14l.2-.1c1.5-.6 2.3-1.4 3-2.1.8-.8 1.2-1.3 2.6-1.5 1.3-.2 2 .1 2.9.6 1.1.5 2.6 1.3 5 .9s3.5-1.6 4.4-2.5c.8-.8 1.2-1.3 2.6-1.5 1.3-.2 2 .1 2.9.6 1.1.5 2.6 1.3 5 .9s3.5-1.6 4.4-2.5c.8-.8 1.2-1.3 2.6-1.5 1.3-.2 2 .1 2.9.6 1.1.5 2.6 1.3 5 .9s3.5-1.6 4.4-2.5c.8-.8 1.2-1.3 2.6-1.5 1.3-.2 2 .1 2.9.6 1.1.5 2.6 1.3 5 .9s3.5-1.6 4.4-2.5c.8-.8 1.2-1.3 2.6-1.5 1.3-.2 2 .1 2.9.6.6.3 1.5.7 2.5.9l.3.1v15.6l-.3.1L9.5 79.7V64.2z" fill="#fff"/></svg>