<svg xmlns="http://www.w3.org/2000/svg" viewBox="0 0 90 90"><path d="M64.6 21c-1.2 1.8-3.4 1.9-5.8.3-.5-.4-1.2-.4-1.8 0-3.4 2.2-6.1 1.1-6.7-2.7-.1-.7-.6-1.2-1.3-1.3-3.8-.6-5-3.4-2.7-6.7.4-.5.4-1.2 0-1.8-1.6-2.4-1.5-4.6.3-5.8 1.2-1 .5-3-1-3h-2.2C31.9 0 22.5 9.4 22.5 20.9v38.6c0 4.4 3.6 8 8 8h8v16.1c0 3.5 2.9 6.4 6.4 6.4 3.5 0 6.4-2.9 6.4-6.4V67.5h8c4.4 0 8-3.6 8-8V21.9c.2-1.6-1.8-2.2-2.7-.9zM48.2 83.6c0 1.8-1.4 3.2-3.2 3.2-1.8 0-3.2-1.4-3.2-3.2V67.5h6.4v16.1zm16.1-24.1c0 2.7-2.2 4.8-4.8 4.8H30.6c-2.7 0-4.8-2.2-4.8-4.8V20.9c0-9.4 7.3-17.1 16.6-17.6-.7 1.9-.5 4.1.7 6.4-2.6 4.7-.6 9.2 4.3 10.6 1.3 4.9 5.8 6.9 10.6 4.3 2.3 1.2 4.5 1.4 6.4.7v34.2zm-9.7-29v28.9c0 .9-.7 1.6-1.6 1.6-.9 0-1.6-.7-1.6-1.6V30.5c0-.9.7-1.6 1.6-1.6.9 0 1.6.7 1.6 1.6zm-16-12.8v41.8c0 .9-.7 1.6-1.6 1.6-.9 0-1.6-.7-1.6-1.6V17.7c0-.9.7-1.6 1.6-1.6.9 0 1.6.7 1.6 1.6z" fill="#fff"/></svg>