<?xml version="1.0" encoding="utf-8"?>
<!-- Generator: Adobe Illustrator 21.0.2, SVG Export Plug-In . SVG Version: 6.00 Build 0)  -->
<svg version="1.1" id="Layer_1" xmlns="http://www.w3.org/2000/svg" xmlns:xlink="http://www.w3.org/1999/xlink" x="0px" y="0px"
	 viewBox="0 0 941.3 941.3" style="enable-background:new 0 0 941.3 941.3;" xml:space="preserve">
<metadata><?xpacket begin="﻿" id="W5M0MpCehiHzreSzNTczkc9d"?>
<x:xmpmeta xmlns:x="adobe:ns:meta/" x:xmptk="Adobe XMP Core 5.6-c137 79.159768, 2016/08/11-13:24:42        ">
   <rdf:RDF xmlns:rdf="http://www.w3.org/1999/02/22-rdf-syntax-ns#">
      <rdf:Description rdf:about=""/>
   </rdf:RDF>
</x:xmpmeta>
                                                                                                    
                                                                                                    
                                                                                                    
                                                                                                    
                                                                                                    
                                                                                                    
                                                                                                    
                                                                                                    
                                                                                                    
                                                                                                    
                                                                                                    
                                                                                                    
                                                                                                    
                                                                                                    
                                                                                                    
                                                                                                    
                                                                                                    
                                                                                                    
                                                                                                    
                                                                                                    
                           
<?xpacket end="w"?></metadata>
<style type="text/css">
	.st0{fill:#FF5363;}
	.st1{fill:#C99A66;}
	.st2{fill:#FFBB3C;}
	.st3{fill:#A062A5;}
	.st4{fill:#26C4B5;}
	.st5{fill:none;}
</style>
<path class="st0" d="M5.2,806.1l25.9-44.9c3.3-5.7,1.3-13.1-4.4-16.4l-1.6-0.9c-5.7-3.3-13.1-1.3-16.4,4.4L0,763.4v47.5
	C2.1,809.9,4,808.2,5.2,806.1z"/>
<path class="st1" d="M78.2,366.1l1.6,0.9c5.8,3.1,13.1,0.9,16.3-4.9l24.5-45.7c3.1-5.8,0.9-13.1-4.9-16.3l-1.6-0.9
	c-5.8-3.1-13.1-0.9-16.2,4.9l-24.5,45.7C70.2,355.7,72.4,363,78.2,366.1z"/>
<path class="st2" d="M317.7,246.8l50.8-10.6c6.5-1.3,10.6-7.7,9.3-14.2l-0.4-1.8c-1.3-6.5-7.7-10.6-14.2-9.3l-50.8,10.6
	c-6.5,1.3-10.6,7.7-9.3,14.2l0.4,1.8C304.8,244,311.2,248.1,317.7,246.8z"/>
<path class="st1" d="M702.7,0l-5.1,37.8c-0.9,6.5,3.8,12.6,10.3,13.5l0.9,0.1l0.9,0.1c6.5,0.9,12.6-3.8,13.5-10.3L728.8,0H702.7z"/>
<path class="st3" d="M75.1,650.4l19.8,48c2.5,6.1,9.6,9,15.7,6.5l0.9-0.4l0.9-0.4c6.1-2.5,9-9.6,6.5-15.7l-19.8-48
	c-2.5-6.1-9.6-9-15.7-6.5l-0.9,0.4l-0.9,0.4C75.5,637.2,72.6,644.3,75.1,650.4z"/>
<path class="st4" d="M326.1,0l22.7,30.3c4,5.3,11.5,6.4,16.8,2.4l1.5-1.1c5.3-4,6.4-11.5,2.4-16.8L358.4,0H326.1z"/>
<path class="st4" d="M121.8,183.3L121,185c-3,5.9-0.6,13.1,5.2,16.1l46.2,23.6c5.9,3,13.1,0.6,16.1-5.2l0.4-0.8l0.4-0.8
	c3-5.9,0.6-13.1-5.2-16.1L138,178.1C132.1,175.1,124.8,177.4,121.8,183.3z"/>
<path class="st2" d="M0,262.7l8.7-5.4l21.9-13.8c5.6-3.5,7.3-11,3.8-16.5l-0.5-0.8l-0.5-0.8c-3.5-5.6-11-7.3-16.5-3.8L0,232.2V262.7
	z"/>
<path class="st0" d="M285.2,140.4l1.8-0.6c6.2-2.2,9.5-9.1,7.3-15.3l-17.3-48.9c-2.2-6.2-9.1-9.5-15.3-7.3l-1.8,0.6
	c-6.2,2.2-9.5,9.1-7.3,15.3l17.3,48.9C272.1,139.3,279,142.6,285.2,140.4z"/>
<path class="st2" d="M38.1,503.6l0.5,0.8l0.5,0.8c3.5,5.6,11,7.3,16.6,3.7l43.9-27.7c5.6-3.5,7.3-11,3.7-16.6l-0.5-0.8l-0.5-0.8
	c-3.5-5.6-11-7.3-16.6-3.7l-43.9,27.7C36.3,490.6,34.6,498.1,38.1,503.6z"/>
<path class="st3" d="M512.2,105.5l-27.5-44c-3.5-5.6-10.9-7.3-16.5-3.8l-0.8,0.5l-0.8,0.5c-5.6,3.5-7.3,10.9-3.8,16.5l27.5,44
	c3.5,5.6,10.9,7.3,16.5,3.8l0.8-0.5l0.8-0.5C513.9,118.5,515.7,111.1,512.2,105.5z"/>
<path class="st1" d="M858.6,941.3l-20-26.7c-4-5.3-11.5-6.4-16.8-2.4l-1.5,1.1c-5.3,4-6.4,11.5-2.4,16.8l8.4,11.2H858.6z"/>
<path class="st4" d="M465.2,941.3l22.7-26.3c4.3-5,11.9-5.6,16.9-1.2l0.7,0.6l0.7,0.6c5,4.3,5.6,11.9,1.2,16.9l-8.1,9.4H465.2z"/>
<path class="st4" d="M608.6,648.1l-0.6-0.7l-0.6-0.7c-4.5-4.8-12.1-5.1-17-0.6l-37.9,35.4c-4.8,4.5-5.1,12.1-0.6,17l0.6,0.7l0.6,0.7
	c4.5,4.8,12.1,5.1,17,0.6l37.9-35.4C612.8,660.6,613.1,652.9,608.6,648.1z"/>
<path class="st4" d="M816,67.3l38.2,35.1c4.9,4.5,12.5,4.1,17-0.7l0.6-0.7l0.6-0.7c4.5-4.9,4.1-12.5-0.7-17l-38.2-35.1
	c-4.9-4.5-12.5-4.1-17,0.7l-0.6,0.7l-0.6,0.7C810.9,55.2,811.2,62.9,816,67.3z"/>
<path class="st2" d="M829.2,830.3l39.3-33.8c5-4.3,5.6-11.9,1.3-16.9l-0.6-0.7l-0.6-0.7c-4.3-5-11.9-5.6-16.9-1.3l-39.3,33.8
	c-5,4.3-5.6,11.9-1.3,16.9l0.6,0.7l0.6,0.7C816.6,834,824.2,834.6,829.2,830.3z"/>
<path class="st1" d="M941.3,340.2l-27.1,17c-5.6,3.5-7.3,11-3.8,16.5l0.5,0.8l0.5,0.8c3.5,5.6,11,7.3,16.5,3.8l13.3-8.4V340.2z"/>
<path class="st3" d="M871.5,257l1.8-0.4c6.4-1.4,10.6-7.9,9.1-14.3l-11.2-50.6c-1.4-6.4-7.9-10.6-14.3-9.1l-1.8,0.4
	c-6.4,1.4-10.6,7.9-9.1,14.3l11.2,50.6C858.6,254.3,865.1,258.4,871.5,257z"/>
<path class="st4" d="M941.3,694.2l-21.6-23c-4.5-4.8-12.1-5.1-17-0.5l-0.7,0.6l-0.7,0.6c-4.8,4.5-5.1,12.1-0.5,17l35.5,37.8
	c1.4,1.5,3.1,2.6,5,3.2V694.2z"/>
<path class="st0" d="M872.7,588.6l-26.2-44.8c-3.3-5.7-10.7-7.6-16.4-4.3l-0.8,0.5l-0.8,0.5c-5.7,3.3-7.6,10.7-4.3,16.4l26.2,44.8
	c3.3,5.7,10.7,7.6,16.4,4.3l0.8-0.5l0.8-0.5C874.1,601.7,876,594.3,872.7,588.6z"/>
<path class="st0" d="M243.3,335.4l23.7,46.1c3,5.9,10.3,8.2,16.2,5.2l0.8-0.4l0.8-0.4c5.9-3,8.2-10.3,5.2-16.2l-23.7-46.1
	c-3-5.9-10.3-8.2-16.2-5.2l-0.8,0.4l-0.8,0.4C242.6,322.2,240.3,329.5,243.3,335.4z"/>
<path class="st4" d="M190.7,550.4l0.9,0.3l0.9,0.3c6.1,2.4,13.1-0.6,15.6-6.7l19.2-48.2c2.4-6.1-0.6-13.1-6.7-15.6l-1.7-0.7
	c-6.1-2.4-13.1,0.6-15.6,6.7L184,534.8C181.5,541,184.6,548,190.7,550.4z"/>
<path class="st2" d="M133,879.2l-40.4-32.5c-5.1-4.1-12.7-3.3-16.9,1.8l-0.6,0.7l-0.6,0.7c-4.1,5.1-3.3,12.7,1.8,16.9l40.4,32.5
	c5.1,4.1,12.7,3.3,16.9-1.8l0.6-0.7l0.6-0.7C138.9,890.9,138.1,883.3,133,879.2z"/>
<path class="st0" d="M757.9,258l-47.7-20.3c-6.1-2.6-13.2,0.3-15.7,6.4l-0.4,0.9l-0.4,0.9c-2.6,6.1,0.3,13.2,6.4,15.7l47.7,20.3
	c6.1,2.6,13.2-0.3,15.7-6.4l0.4-0.9l0.4-0.9C766.8,267.7,764,260.6,757.9,258z"/>
<path class="st4" d="M635,357.6l-1-1.6c-3.5-5.6-10.9-7.4-16.5-3.9l-44.1,27.3c-5.6,3.5-7.4,10.9-3.9,16.5l1,1.6
	c3.5,5.6,10.9,7.4,16.5,3.9l44.1-27.3C636.8,370.6,638.5,363.2,635,357.6z"/>
<path class="st3" d="M757.5,659.5l-0.9-0.3l-0.9-0.3c-6.1-2.4-13.1,0.6-15.6,6.7L721,713.7c-2.4,6.1,0.6,13.1,6.7,15.6l0.9,0.3
	l0.9,0.3c6.1,2.4,13.1-0.6,15.6-6.7l19.2-48.2C766.7,669,763.7,662,757.5,659.5z"/>
<path class="st0" d="M279.5,692.6l-47.7-20.3c-6.1-2.6-13.2,0.3-15.7,6.4l-0.7,1.7c-2.6,6.1,0.3,13.2,6.4,15.7l47.7,20.3
	c6.1,2.6,13.2-0.3,15.7-6.4l0.7-1.7C288.5,702.3,285.6,695.2,279.5,692.6z"/>
<path class="st4" d="M250.5,795.3l-1-1.6c-3.5-5.6-10.9-7.4-16.5-3.9L189,817.2c-5.6,3.5-7.4,10.9-3.9,16.5l1,1.6
	c3.5,5.6,10.9,7.4,16.5,3.9l44.1-27.3C252.3,808.4,254,800.9,250.5,795.3z"/>
<path class="st1" d="M425.1,711.4l1.7-0.8c5.9-3,8.2-10.3,5.2-16.2l-23.7-46.1c-3-5.9-10.3-8.2-16.2-5.2l-1.7,0.8
	c-5.9,3-8.2,10.3-5.2,16.2l23.7,46.1C411.9,712,419.2,714.4,425.1,711.4z"/>
<path class="st3" d="M385.5,800.7l-1.7-0.7c-6.1-2.4-13.1,0.6-15.6,6.7l-20,50.1c-1.7,4.2,1.3,11.2,7.5,13.7l0.9,0.3l0.9,0.3
	c6.1,2.4,13.1-0.6,15.6-6.7l19.2-48.2C394.7,810.1,391.7,803.1,385.5,800.7z"/>
<path class="st3" d="M461.1,393l-51.8-3.4c-6.6-0.4-12.3,4.6-12.8,11.2l-0.1,1.9c-0.4,6.6,4.6,12.3,11.2,12.8l51.8,3.4
	c6.6,0.4,12.3-4.6,12.8-11.2l0.1-1.9C472.8,399.2,467.7,393.5,461.1,393z"/>
<path class="st2" d="M572.9,871.1l1.1-1.5c4-5.2,3-12.8-2.2-16.8l-41.2-31.5c-5.2-4-12.8-3-16.8,2.2l0,0l-1.1,1.5
	c-4,5.2-3,12.8,2.2,16.8l41.2,31.5C561.4,877.3,568.9,876.3,572.9,871.1z"/>
<path class="st0" d="M525.9,551.5c-2.8,6-0.2,13.2,5.7,16l0.8,0.4l0.8,0.4c6,2.8,13.2,0.2,16-5.7l22.1-46.9c2.8-6,0.2-13.2-5.7-16
	l-0.8-0.4l-0.8-0.4c-6-2.8-13.2-0.2-16,5.7L525.9,551.5z"/>
<path class="st2" d="M348.8,560l40.1-32.9c5.1-4.2,5.9-11.8,1.7-16.9l-1.2-1.4c-4.2-5.1-11.8-5.9-16.9-1.7L332.4,540
	c-5.1,4.2-5.9,11.8-1.7,16.9l1.2,1.4C336.1,563.4,343.7,564.2,348.8,560z"/>
<path class="st0" d="M721,864.7l-23.7-46.1c-3-5.9-10.3-8.2-16.2-5.2l-0.8,0.4l-0.8,0.4c-5.9,3-8.2,10.3-5.2,16.2l23.7,46.1
	c3,5.9,10.3,8.2,16.2,5.2l0.8-0.4l0.8-0.4C721.6,877.9,724,870.6,721,864.7z"/>
<path class="st1" d="M508.6,279.9c1.4,6.4,7.9,10.6,14.3,9.1l1.8-0.4c6.4-1.4,10.6-7.9,9.1-14.3l-11.2-50.6
	c-1.4-6.4-7.9-10.6-14.3-9.1l-1.8,0.4c-6.4,1.4-10.6,7.9-9.1,14.3L508.6,279.9z"/>
<path class="st2" d="M615.9,170.8c-2.7,6,0.1,13.2,6.2,15.8l1.7,0.7c6,2.7,13.2-0.1,15.8-6.2l20.9-47.5c2.7-6-0.1-13.2-6.2-15.8
	l-1.7-0.7c-6-2.7-13.2,0.1-15.8,6.2L615.9,170.8z"/>
<path class="st1" d="M673.6,506.9l45.9,24.2c5.8,3.1,13.1,0.8,16.2-5l0.4-0.8l0.4-0.8c3.1-5.8,0.8-13.1-5-16.2L685.7,484
	c-5.8-3.1-13.1-0.8-16.2,5l-0.7,1.3l-0.2,0.3C665.6,496.5,667.8,503.8,673.6,506.9z"/>
<path class="st2" d="M805.2,392.1l-6.9,51.4c-0.9,6.5,3.8,12.6,10.3,13.5l0.9,0.1l0.9,0.1c6.5,0.9,12.6-3.8,13.5-10.3l6.9-51.4
	c0.9-6.5-3.8-12.6-10.3-13.5l-0.9-0.1l-0.9-0.1C812.2,381,806.1,385.6,805.2,392.1z"/>
<path class="st3" d="M54.1,67.5l0.1,0.9l0.1,0.9c0.7,6.6,6.7,11.3,13.3,10.6l51.5-5.9c6.6-0.7,11.3-6.7,10.6-13.3l-0.2-1.9
	c-0.7-6.6-6.7-11.3-13.3-10.6l-51.5,5.9C58.1,54.9,53.4,60.9,54.1,67.5z"/>
<rect class="st5" width="941.3" height="941.3"/>
</svg>
