<svg xmlns="http://www.w3.org/2000/svg" viewBox="0 0 90 90"><path d="M48.8 31.3c.9.9 1.8 1.6 2.9 2.3 1.6.9 3.4 1.6 5.3 1.8 1.9.2 3.8.2 5.8-.2 4.1-.8 7.5-2.9 9.6-5.9.7-1 1.3-2.1 1.7-3.2V26c1 .5 2.1 1 3.1 1.4 1.5.5 3 .9 4.5 1.1 1 .1 2 .2 3 .2.5 0 .9-.2 1.2-.6.3-.4.4-.9.3-1.3-.3-1.6-.9-2.3-1.4-2.9-.4-.5-.6-.8-.8-1.6-.2-.8-.1-1.2.1-1.8.2-.8.5-1.7.1-3.3-.3-1.6-.9-2.3-1.4-2.9-.4-.5-.6-.8-.8-1.6-.2-.8-.1-1.2.1-1.8.1-.4.2-.8.3-1.4 0-.6 0-1.3-.1-1.9-.1-.5-.4-.8-.8-1.1-.4-.2-.9-.3-1.3-.1-2.4.9-4.5 2.2-6.3 3.9-.9.8-1.8 1.8-2.5 2.8-.8-.8-1.7-1.6-2.7-2.2-3.1-1.9-7.1-2.4-11.1-1.6-4.1.8-7.5 2.9-9.6 5.9-.7 1-1.2 2-1.6 3.1v.1c-1.1-.6-2.2-1.1-3.4-1.5-2-.7-4.1-1-6.3-1h-1.1c-.5 0-.9.3-1.2.6-.3.4-.4.8-.3 1.3.1.6.3 1.2.6 1.8.3.5.6.9.8 1.2.4.5.6.8.8 1.6.2.8.1 1.2-.1 1.8-.2.8-.5 1.7-.1 3.3.3 1.6.9 2.3 1.4 2.9.4.5.6.8.8 1.6.2.8.1 1.2-.1 1.8-.2.8-.5 1.7-.1 3.3.1.5.4.9.8 1.1.2.1.3.1.5.2.3 0 .6 0 .9-.1 2.4-1 4.5-2.4 6.4-4.2.6-1 1.4-1.9 2.1-2.8zm24.5-15.4c.8-1.2 1.7-2.3 2.7-3.2.9-.8 1.8-1.5 2.8-2.1l.1-.1v.1c-.1.6-.2 1.4 0 2.7.3 1.6.9 2.3 1.4 2.9.4.5.6.8.8 1.6.2.8.1 1.2-.1 1.8-.2.8-.5 1.7-.1 3.3.2 1.2.7 1.9.9 2.3l.1.1h-.1c-1.2-.2-2.4-.5-3.5-.9-1.2-.4-2.5-1-3.6-1.7.1-1.1 0-2.3-.3-3.4-.1-1.2-.5-2.3-1.1-3.4zm-4.8-1c1.5 1.4 2.4 3.1 2.9 5.1.6 2.6 0 5.3-1.6 7.5-1.4 2-3.7 3.5-6.4 4.3h-.1v-.1c.4-3.2 1-6.4 2-9.4.9-2.6 1.9-5 3.2-7.4zm-7.9-2.7c.8-.1 1.6 0 2.3.1 1 .1 2 .4 2.9.8-1.4 2.6-2.5 5.3-3.4 8.1-1.2 3.6-1.9 7.3-2.3 11h-.9c-1.6 0-3.1-.3-4.4-.8.3-3.6 1-7.1 2.1-10.5.8-3 2.1-5.9 3.7-8.7zm-10.1 5c1.4-1.9 3.4-3.4 6-4.2h.1v.1c-1.1 2.2-2 4.6-2.8 6.9-1 3.1-1.7 6.3-2.1 9.5v.1l-.1-.1c-1.3-1.3-2.2-3-2.6-4.8-.6-2.7-.1-5.4 1.5-7.5zm-6.2 14.3c-.9.8-1.9 1.6-2.9 2.2l-.1.1v-.1c.1-.5.2-1.3-.1-2.5-.3-1.6-.9-2.3-1.4-2.9-.4-.5-.6-.8-.8-1.6-.2-.8-.1-1.2.1-1.8.2-.8.5-1.7.1-3.3-.3-1.3-.7-2-1.1-2.5L38 19h.1c1.2.1 2.3.4 3.4.8 1.3.5 2.6 1.1 3.8 1.9-.1 1.2 0 2.3.3 3.5.2 1.1.6 2.2 1.1 3.2-.6 1.2-1.4 2.2-2.4 3.1zm21.3 31.9c.4-.3.8-.7 1.1-1.2.4-.6.8-1.2 1-2 .2-.4.1-.9-.1-1.3s-.6-.7-1.1-.8c-2.9-.6-5.9-.6-8.9-.1-1.6.3-3.2.8-4.7 1.4h-.1v-.1c-.3-1.5-.8-3-1.5-4.3-1-1.9-2.3-3.6-4.1-5-1.8-1.5-3.9-2.7-6.2-3.6-2.4-.9-4.8-1.3-7.1-1.3s-4.4.4-6.4 1.2c-1.4.6-2.7 1.4-3.9 2.4v-.1c-.7-1.5-1.7-2.8-2.7-4.1-1.9-2.3-4.2-4.2-6.9-5.7-.4-.2-.9-.3-1.3-.1-.4.2-.8.5-.9.9-.3.7-.4 1.4-.5 2.2 0 .7 0 1.2.1 1.7.1.7.2 1.3-.2 2.3-.4 1-.8 1.4-1.3 1.9-.7.6-1.5 1.4-2.2 3.2-.6 1.8-.5 2.9-.4 3.8.2.8.2 1.3-.1 2.3-.4 1-.8 1.4-1.3 1.9-.7.6-1.5 1.4-2.2 3.2-.2.5-.1 1 .1 1.4.2.4.7.7 1.1.8 1.3.2 2.6.3 3.9.3 1.7 0 3.5-.2 5.2-.5 1.5-.3 3-.7 4.4-1.3h.1v.1c.3 1.6.8 3.1 1.5 4.5 1 1.9 2.3 3.6 4.1 5 1.8 1.5 3.9 2.7 6.2 3.6 2.4.9 4.8 1.3 7.1 1.3s4.4-.4 6.4-1.2c1.5-.6 2.8-1.4 4-2.5.7 1.3 1.6 2.6 2.5 3.8 1.9 2.4 4.2 4.5 6.8 6.1.4.3.9.3 1.4.2.5-.2.8-.5 1-1 .6-1.8.5-2.9.4-3.8-.1-.7-.2-1.3.2-2.3.4-1 .8-1.4 1.3-1.9.7-.6 1.5-1.4 2.2-3.2.6-1.8.5-2.9.4-3.8-.1-.7-.2-1.3.2-2.3.5-1.1.9-1.5 1.4-2zM21.4 51.3c-.9 1.2-1.6 2.5-2.1 3.9-.5 1.3-.8 2.7-.9 4.1-1.6.7-3.2 1.2-4.9 1.5-1.5.3-3 .5-4.6.5H8l.1-.1c.6-.5 1.4-1.3 2.1-3.1.6-1.8.5-2.9.4-3.8-.1-.7-.2-1.3.2-2.3.4-1 .8-1.4 1.3-1.9.7-.6 1.5-1.4 2.2-3.2.6-1.8.5-2.9.4-3.8v-.2l.1.1c1.4 1 2.7 2.2 3.8 3.6 1.1 1.4 2 3 2.8 4.7zm.8 12.5c-.8-2.5-.8-5.1.2-7.6 1.2-3.2 3.5-5.6 6.6-6.9 1.6-.7 3.3-1 5.1-1 1.5 0 3.1.2 4.8.7h.1l-.1.1c-2.8 1.7-5.5 3.6-8 5.7-3.3 2.7-6.2 5.8-8.7 9zm7.1 8.1c-2.4-1.2-4.2-2.8-5.6-4.7 2.7-3.6 5.8-6.9 9.2-9.8 3-2.5 6.3-4.8 9.7-6.7 2.2 1.2 4 2.8 5.2 4.7-3.2 1.8-6.2 3.9-9.1 6.3-3.4 3.1-6.6 6.5-9.4 10.2zm19.8-5.8c-1.2 3.2-3.5 5.6-6.6 6.9-1.6.7-3.3 1-5.1 1-1.6 0-3.3-.3-5-.8h-.1v-.1c2.5-3.3 5.4-6.2 8.5-8.9 2.6-2.2 5.4-4.1 8.4-5.8v.1c.9 2.4.9 5.1-.1 7.6zM63.4 61c-.7.6-1.5 1.4-2.2 3.2-.6 1.8-.5 2.9-.4 3.8.1.7.2 1.3-.2 2.3-.4 1-.8 1.4-1.3 1.9-.7.6-1.5 1.4-2.2 3.2-.6 1.8-.5 2.9-.4 3.7v.1l-.1-.1c-1.4-1.1-2.7-2.4-3.8-3.8-1.1-1.3-2-2.8-2.7-4.3.8-1.1 1.5-2.4 2-3.7.5-1.4.8-2.8.9-4.3 1.6-.8 3.4-1.4 5.2-1.7 1.7-.3 3.5-.4 5.2-.3h.1-.1z" fill="#fff"/></svg>