<svg xmlns="http://www.w3.org/2000/svg" viewBox="0 0 90 90"><path d="M50.3 23.9c0-1 .8-1.6 1.6-1.6s1.6.5 1.6 1.6v.9c0 1.3.1 2.4-.5 3-.3.3-.6.4-1.1.4-.9 0-1.6-.7-1.6-1.6v-2.7zm-3.4-7.8c.2.2.5.4.7.7.3.3.7.5 1.1.5.1 0 .3 0 .4-.1.6-.2 1.1-.6 1.2-1.2.1-.5 0-1.1-.4-1.5-.2-.2-.4-.5-.7-.7-.9-.9-1.7-1.8-2.5-1.8-.4 0-.7.2-1.1.5-.3.3-.5.7-.5 1.1.1.8.9 1.6 1.8 2.5zM25.7 42.8c-.9-.9-1.7-1.8-2.5-1.8-.4 0-.7.2-1.1.5-.3.3-.5.7-.5 1.1 0 .8.8 1.6 1.8 2.5.2.2.5.4.7.7.3.3.7.5 1.1.5.4 0 .9-.2 1.2-.5.6-.6.7-1.5 0-2.3-.2-.3-.5-.5-.7-.7zm-2.7-13c.2-.2.4-.5.7-.7.4-.4.6-1 .4-1.5-.2-.6-.6-1.1-1.2-1.2-.5-.1-1.1 0-1.5.4-.2.2-.5.4-.7.7-.9.9-1.8 1.7-1.8 2.5 0 .4.2.7.5 1.1.3.3.7.5 1.1.5.8 0 1.6-.8 2.5-1.8zm11.6-12.2h1.8c.9 0 1.7-.1 2.1-.5.3-.3.4-.6.4-1.1 0-.9-.7-1.6-1.6-1.6h-2.8c-.9 0-1.6.7-1.6 1.6.1.9.9 1.6 1.7 1.6zm-1.1 12c.4 0 .8-.2 1.1-.5.3-.3.5-.7.5-1.1 0-.8-.8-1.6-1.8-2.5-.2-.2-.5-.4-.7-.7-.4-.4-1-.6-1.5-.4-.6.2-1.1.6-1.2 1.2-.1.5 0 1.1.4 1.5l2 2c.4.4.8.5 1.2.5zm32.4 10.3c0-.5-.2-.9-.5-1.2-.3-.3-.7-.4-1.1-.4-.8 0-1.6.5-1.6 1.6v.9c0 1.3-.1 2.4.5 3 .3.3.6.4 1.1.4.5 0 .8-.1 1.1-.4.6-.6.5-1.7.5-3 .1-.3 0-.6 0-.9zm18 5.1c0 21.5-17.5 38.9-38.9 38.9C23.5 83.9 6.1 66.5 6.1 45S23.5 6.1 45 6.1 83.9 23.5 83.9 45zm-73.8-1.8c-.5.5-.7 1.1-.7 1.8.1 9.7 3.9 18.8 10.7 25.5 3.3 3.2 7.1 5.7 11.3 7.5 4.3 1.8 8.9 2.7 13.6 2.7 8.8 0 17.2-3.2 23.7-9S79.3 58 80.4 49.5c-.6-1.3-1.9-1.6-2.8-1.4-1 .2-2 1.1-2 2.5v8.3c0 3.2-2.6 5.7-5.7 5.7-3.2 0-5.8-2.6-5.8-5.7 0-1.4-1.1-2.5-2.5-2.5s-2.5 1.1-2.5 2.5v8.3c0 3.2-2.6 5.7-5.7 5.7-3.2 0-5.8-2.6-5.8-5.7 0-1.4-1.1-2.5-2.5-2.5s-2.5 1.1-2.5 2.5V70c0 2.4-1.4 4.4-3.5 5.3-2.2.9-4.6.4-6.3-1.2-1.8-1.8-1.8-3-1.7-9.8 0-1.5 0-3.2.1-5.3 0-1-.4-1.7-1.2-2.1-.8-.5-2-.5-2.8 0-.8.4-1.2 1.2-1.2 2.1 0 3.2-2.6 5.8-5.7 5.8-3.2 0-5.8-2.6-5.8-5.7V45c0-1.4-1.1-2.5-2.5-2.5-.8 0-1.5.2-1.9.7zm65.1 2.4c1.7-1 3.7-1.1 5.5-.2 0-4.8-.8-9.5-2.7-13.9-1.8-4.3-4.3-8.2-7.6-11.5-3.3-3.3-7.1-6-11.4-7.8-4.4-1.9-9.1-2.9-14-2.9-8.6 0-16.9 3.1-23.4 8.8C15.2 23.7 11 31.3 9.7 39.7c1.7-.7 3.7-.5 5.3.5 1.6 1.1 2.6 2.9 2.6 4.8v13.8c0 1.4 1.1 2.5 2.5 2.5s2.5-1.1 2.5-2.5c0-2.4 1.4-4.4 3.5-5.3.7-.3 1.5-.5 2.3-.5 1.5 0 3 .6 4.1 1.7 1.8 1.8 1.8 3 1.7 9.8 0 1.5 0 3.2-.1 5.3 0 .7.3 1.3.7 1.8.7.7 1.8.9 2.8.5 1-.4 1.6-1.3 1.6-2.3V67c0-3.2 2.6-5.7 5.7-5.7 3.2 0 5.8 2.6 5.8 5.7 0 1.4 1.1 2.5 2.5 2.5s2.5-1.1 2.5-2.5v-8.3c0-3.2 2.6-5.7 5.7-5.7 3.2 0 5.8 2.6 5.8 5.7 0 1.7 1.3 2.5 2.5 2.5 1.7 0 2.5-1.3 2.5-2.5v-8.3c.2-1.9 1.2-3.8 3-4.8zm-3.8-12.4c-.4-.4-1-.6-1.5-.4-.6.2-1.1.6-1.2 1.2-.1.5 0 1.1.4 1.5l2 2c.3.3.7.5 1.1.5.1 0 .3 0 .4-.1.6-.2 1.1-.6 1.2-1.2.1-.5 0-1.1-.4-1.5l-2-2zm-7.6-7.5c.9-.9 1.8-1.7 1.8-2.5 0-.4-.2-.7-.5-1.1-.3-.3-.7-.5-1.1-.5s-.8.2-1.1.5c-.2.2-.5.4-.7.7-.9.9-1.8 1.7-1.8 2.5 0 .4.2.7.5 1.1.3.3.7.5 1.1.5.4 0 .8-.2 1.1-.5l.7-.7zM59 45c0 7.7-6.3 14-14 14s-14-6.3-14-14 6.3-14 14-14 14 6.3 14 14zM45 34.2c-6 0-10.8 4.9-10.8 10.8 0 6 4.9 10.8 10.8 10.8 6 0 10.8-4.9 10.8-10.8 0-6-4.8-10.8-10.8-10.8z" fill="#fff"/></svg>