<svg xmlns="http://www.w3.org/2000/svg" viewBox="0 0 90 90"><path d="M64 22zm12.6 5.5c0 2.9-1.9 5.4-4.9 6.5-.3 3.2-3.3 6.1-8 7.7L49.5 86c-1 3.3-2.6 4-3.7 4s-2.7-.7-3.7-4L27.8 42.1c-2.9-1.4-4.9-3.5-5.7-6V36H22c-.4 0-.7.1-1.1.1-4.2 0-7.6-3.2-7.6-7.1 0-3.9 3.4-7.1 7.6-7.1h.6v-.1C21.6 9.8 31.8 0 44.4 0c5.8 0 11.4 2.1 15.7 6 4.2 3.8 6.8 9 7.2 14.5v.1h.1c.4 0 .8-.1 1.2-.1 4.4 0 8 3.1 8 7zM51.1 70.2l-.1.1c-3.1 1.4-6.4 2.2-9.8 2.4h-.1l4 12.3c.2.7.5 1.2.6 1.4l.1.1.1-.1c.2-.2.4-.7.6-1.4l4.6-14.8zm5.1-15.8l-.2.1c-4.7 3.2-9.9 4.8-15.6 4.8-1.2 0-2.4-.1-3.6-.2h-.1l3.4 10.4h.1c4.5-.1 8.7-1.4 12.4-3.7l3.6-11.4zm3.7-11.7h-.1c-1.3.2-2.7.3-4.2.3-4.2 0-8.1-.9-11.1-2.6-2.5 2-6 3.1-9.6 3.1-1.1 0-2.1-.1-3.1-.3h-.1l4 12.4c1.6.3 3.2.4 4.7.4 8.8 0 14.7-4.4 17.6-7.3l1.9-6zm13.5-15.2c0-2.1-2.2-3.8-4.8-3.8-.6 0-1.3.1-1.8.3-1.5 1.8-7.3 7.8-19.4 7.8-1.8 0-3.6-.1-5.5-.4-.4-.1-.8-.3-1.1-.6-.3-.3-.4-.8-.3-1.2.1-.4.3-.8.6-1.1.3-.3.8-.4 1.2-.3 6.1.8 11.4.2 15.8-1.8 3.5-1.6 5.4-3.6 6.1-4.4 0-10.4-8.8-18.8-19.7-18.8-10.9 0-19.7 8.4-19.7 18.8 0 .5.1.9.4 1.4.4.6.3 1.4-.2 1.9s-1.2.7-1.9.4c-.6-.3-1.3-.5-2-.5-2.4 0-4.3 1.7-4.3 3.8 0 2.1 1.9 3.8 4.3 3.8.6 0 1.3-.1 1.9-.4.2-.1.4-.1.6-.1.3 0 .6.1.9.3.5.3.7.8.7 1.3 0 3.4 4.5 6.3 9.8 6.3 3.4 0 6.5-1.1 8.3-3 .6-.6 1.4-.7 2.1-.2 2.4 1.7 6.3 2.8 10.4 2.8 3.5 0 6.7-.7 9.2-2 2.3-1.2 3.6-2.8 3.6-4.3v-.4c-.1-.9.4-1.6 1.3-1.8 1.9-.5 3.5-2 3.5-3.8z" fill="#fff"/></svg>