<svg version="1.1" id="Layer_1" xmlns="http://www.w3.org/2000/svg" x="0" y="0" viewBox="0 0 280 176.5" xml:space="preserve"><style>.st0{fill:#fff2cb}.st2{fill:#1c1a1a}.st3{fill:#ff5363}.st4{fill:#d73545}.st7{fill:#ffc1d1}.st8{fill:#ffcf50}.st9{fill:#8e4795}.st18{fill:#0abf04}.st22{opacity:1.500000e-02;fill:#1c1a1a}</style><path class="st0" d="M23.4 99.1v.7c.3-1.7 1.4-2.7 3.1-3.4-1.5.6-2.6 1.4-3.1 2.7zm108.2-12.6l-2 .4-104.8 20.4 5.8 30.3 106.9-20.8z"/><path d="M213 99.7c26.7 0 48.4-21.7 48.4-48.4 0-19.4-11.5-36.2-28.1-43.9-4-1.5-8.3-2.6-12.7-3h-.2c-.7-.1-1.5-.1-2.2-.2-.8 0-1.6-.1-2.5-.1-27.5 0-49.8 22.3-49.8 49.8 0 6.1 1.1 12 3.1 17.4 7.7 16.8 24.5 28.4 44 28.4zm0-65.7c9.6 0 17.3 7.8 17.3 17.3 0 9.6-7.8 17.3-17.3 17.3-9.6 0-17.3-7.8-17.3-17.3 0-9.6 7.8-17.3 17.3-17.3z" fill="#f1d58e"/><path class="st2" d="M219.2 79.9c.1 2.8-2.6 5.1-5.9 5.2-3.4.1-6.1-2.1-6.2-4.9V80c0-.2 1.3-.5 2.9-.5l6.3-.2c1.6 0 2.9.1 2.9.4v.2z"/><path class="st3" d="M254.6 74.3v-16c1.2 1.8 3.3 3 5.5 3h.2c.7-3.2 1.1-6.6 1.1-10 0-26.7-21.7-48.4-48.4-48.4s-48.4 21.7-48.4 48.4c0 8.5 2.2 16.5 6.1 23.5 2.9-1 4.8-3.9 4.8-7.2V41.3c0-3.1 2.9-5.5 5.9-5.5 1.5 0 2.7.6 3.7 1.6s1.4 2.4 1.4 3.9v14.1c0 1.5 1 2.9 2 3.9s2.6 1.6 4.1 1.6c1.9 0 3.6-.9 4.6-2.4-1-2.2-1.6-4.7-1.6-7.3 0-9.6 7.8-17.3 17.3-17.3 2.8 0 5.5.7 7.9 1.9.5-.9 1.4-1.5 2.4-1.8.3-.1.5-.1.8-.2h.8c.1 0 .3 0 .4.1.5.1 1.1.3 1.5.6.2.2.4.3.6.5.1.1.2.2.2.3l.1.1.1.1v.1l.1.1.1.1c.1.1.1.2.2.3.1.1.1.3.2.4.1.2.1.8.2 1 0 .6.1 2.9.2 6.6 1 2.2 1.6 4.6 1.6 7.2 0 2.4-.5 4.6-1.3 6.6v8.8c0 3.9 2.8 4.5 4 4.5 2.4 0 3.5-1.9 3.5-4.3V54.7c0-1.8 1.9-3.3 3.7-3.3.9 0 1.4.4 2 1 .6.6.7 1.4.7 2.3v20.9c0 2 .9 3.1 1.1 3.3 1.2 1.2 2.5 1.9 4.3 1.9 1.6 0 3-.6 4-1.5.6-.9 1.2-1.7 1.8-2.6.4-.8.5-1.6.5-2.4zm-38.9 9.1c0 .4-1.1.8-2.4.9-1.4 0-2.5-.3-2.5-.7 0-.4.5-1.8 2.4-1.9 2.1-.1 2.4 1.2 2.5 1.7z"/><circle transform="rotate(-1.403 222.39 76.306)" class="st2" cx="222.4" cy="76.2" r="2.7"/><circle transform="rotate(-1.403 203.59 76.632)" class="st2" cx="203.6" cy="76.6" r="2.7"/><path class="st4" d="M209.1 32.1c-8.8 0-15.9 7.1-15.9 15.9 0 4 1.5 7.7 4 10.5-1-2.2-1.6-4.6-1.6-7.2 0-9.6 7.8-17.3 17.3-17.3 1.6 0 3.2.2 4.6.6-2.3-1.6-5.2-2.5-8.4-2.5z"/><path d="M213 34c-9.6 0-17.3 7.8-17.3 17.3 0 2.6.6 5 1.6 7.2 1.1 1.2 2.3 2.2 3.6 3-2.3-2.8-3.7-6.3-3.7-10.2 0-8.8 7.1-15.9 15.9-15.9 3 0 5.8.8 8.2 2.3-1-1.2-2.2-2.3-3.6-3.2-1.5-.3-3.1-.5-4.7-.5z" fill="#1a1512"/><path d="M252.5 79.2c-1.1 1-2.5 1.5-4.1 1.5-.6 0-1.1-.1-1.6-.2-9.1 10.6-22.6 17.3-37.7 17.3-6.3 0-12.2-1.2-17.8-3.3 6.5 3.3 13.9 5.1 21.6 5.1 16.4.1 30.8-8 39.6-20.4zm4.8-18.5c-.7 2.7-1.6 5.2-2.7 7.7v6c0 .8-.1 1.6-.4 2.3 2.9-4.6 5-9.8 6.1-15.3h-.2c-.9-.1-1.9-.3-2.8-.7z" fill="#d3a470"/><path class="st4" d="M254.6 68.4c-2 4.5-4.6 8.6-7.8 12.2.5.1 1 .2 1.6.2 1.6 0 3-.6 4.1-1.5.6-.9 1.2-1.7 1.7-2.6.3-.7.4-1.5.4-2.3v-6zM252.2 23c4.3 7.4 6.7 15.9 6.7 25 0 4.4-.6 8.6-1.6 12.7.9.4 1.8.7 2.8.7h.2c.7-3.2 1-6.6 1-10 .1-10.7-3.3-20.4-9.1-28.4z"/><path class="st2" d="M278.6 58.9v-.3l.2-4.7v-.1c0-4.1-1.2-6.7-3.5-7.8-3.5-1.6-8.4 1.2-11.1 3.1C263.1 21.9 240.6 0 213 0c-27.2 0-49.5 21.3-51.2 48.1-7.7-4.8-9.8-10.9-10.8-16.4 2.5-.9 3.2-1.9 3.3-2.6.1-.7-.3-1.4-1.1-2-.6-.4-1.2-.6-1.8-.5-.2.1-.4.1-.5.2 0-.8-.3-2.1-1.1-2.9-.6-.6-1.4-.9-2.4-.8-1.1.2-3.2 1-3.1 3 .2 2.6 1.2 5.4 3.6 6 1.1 6.2 3.7 13.9 13.4 19.4.1.1.3.1.4.2.1 21.7 13.8 40.3 33 47.7-.5 2.3-1.9 10.2 2.1 13.9 1.9 1.8 4.7 2.3 8.3 1.4.2 1.8.7 4.1 2.2 5.3.6.5 1.4.8 2.3.8h.4c1.1-.1 1.9-.6 2.3-1.4.9-1.7.2-4.7-2.1-9l-.1-.2c-.3-.6-1.1-.9-2.1-.9-1.2 0-2.2.6-2.7 1.6-2.9.9-5 .8-6.2-.3-2.3-2.1-1.7-7.5-1.2-10.2 4.7 1.4 9.8 2.2 15 2.2 4.8 0 9.5-.7 13.9-1.9-.5 3.2-1 9.4 2.4 12.5 1.9 1.8 4.7 2.3 8.3 1.4.2 1.8.7 4.1 2.2 5.3.6.5 1.4.8 2.3.8h.4c1.1-.1 1.9-.6 2.3-1.4.9-1.7.2-4.7-2.1-9l-.1-.2c-.3-.6-1.1-.9-2.1-.9-1.2 0-2.2.6-2.7 1.6-2.9.9-5 .8-6.2-.3-2.5-2.3-1.6-8.8-1-11.1v-.1c18.9-7 32.6-24.8 33.5-45.9.1 0 .2-.1.2-.2 2.6-2.2 7.5-5.1 9.5-4.2 1 .4 1.5 2.1 1.5 4.6l-.2 4c-2.2-.3-3.2.3-3.6.8-.4.6-.4 1.4 0 2.3.4.7.8 1.1 1.4 1.3.2.1.4.1.6 0-.3.7-.8 2-.5 3.1.2.8.8 1.4 1.7 1.9.4.2 1 .3 1.7.3 1 0 2-.3 2.5-1.4.6-.8 2.4-4.9-.2-7zM213 99.7c-26.7 0-48.4-21.7-48.4-48.4S186.3 2.9 213 2.9s48.4 21.7 48.4 48.4-21.7 48.4-48.4 48.4z"/><path class="st2" d="M213 34c-9.6 0-17.3 7.8-17.3 17.3 0 9.6 7.8 17.3 17.3 17.3 9.6 0 17.3-7.8 17.3-17.3.1-9.6-7.7-17.3-17.3-17.3zm0 31.7c-8 0-14.4-6.5-14.4-14.4 0-8 6.5-14.4 14.4-14.4s14.4 6.5 14.4 14.4S221 65.7 213 65.7zm-81.6 67L42.3 150c-4.4.9-11.7 2.3-13.3-6l-8.1-41.9c-1.3-6.8 1.7-15.2 6.9-19.2L44 70.4c3.2-2.4 8-4.5 13-5.4 2.7-.5 5.3-.7 7.5-.5l54.8 2.4h.1c6.6.6 12.8 6.5 14.1 13.4l8.1 41.9c1.5 8.3-5.9 9.7-10.2 10.5zM57.5 67.8c-4.5.9-9 2.7-11.8 4.9L29.4 85.2c-4.3 3.3-6.9 10.7-5.8 16.4l8.1 41.9c.8 4.2 3 5 9.9 3.7l89.1-17.3c6.9-1.3 8.6-2.9 7.8-7.1l-8.1-41.9c-1.1-5.6-6.2-10.5-11.5-11.1l-54.8-2.4H64c-1.8-.2-4.1-.1-6.5.4z"/><path class="st7" d="M234.8 24.9c-.6 0-1.1-.3-1.3-.9l-1.7-3.9c-.3-.7 0-1.6.7-1.9.7-.3 1.6 0 1.9.7l1.7 3.9c.3.7 0 1.6-.7 1.9-.2.2-.4.2-.6.2z"/><path class="st8" d="M223.4 12h-4.2c-.8 0-1.5-.7-1.5-1.5s.7-1.5 1.5-1.5h4.2c.8 0 1.5.7 1.5 1.5-.1.9-.7 1.5-1.5 1.5z"/><path class="st7" d="M182.3 27.6c-.4 0-.8-.2-1.1-.5l-2.8-3.2c-.5-.6-.5-1.5.1-2.1.6-.5 1.5-.5 2.1.1l2.8 3.2c.5.6.5 1.5-.1 2.1-.3.3-.6.4-1 .4z"/><path class="st9" d="M170.9 43.9c-.7 0-1.2-.4-1.4-1.1l-1-4.1c-.2-.8.3-1.6 1.1-1.8.8-.2 1.6.3 1.8 1.1l1 4.1c.2.8-.3 1.6-1.1 1.8-.2-.1-.3 0-.4 0z"/><path class="st8" d="M197.8 29.2h-4.2c-.8 0-1.5-.7-1.5-1.5s.7-1.5 1.5-1.5h4.2c.8 0 1.5.7 1.5 1.5s-.7 1.5-1.5 1.5z"/><path class="st9" d="M215 25.7c-.6 0-1.2-.4-1.4-1l-1.3-4c-.3-.8.2-1.6.9-1.8.8-.3 1.6.2 1.8.9l1.3 4c.3.8-.2 1.6-.9 1.8-.1.1-.2.1-.4.1z"/><path d="M195.9 17.6c-.5 0-1.1-.3-1.3-.8-.3-.7 0-1.6.7-1.9l3.8-1.8c.7-.3 1.6 0 1.9.7.3.7 0 1.6-.7 1.9l-3.8 1.8c-.2 0-.4.1-.6.1zm41.5 26.3c-.8 0-1.5-.7-1.5-1.5v-4.2c0-.8.7-1.5 1.5-1.5s1.5.7 1.5 1.5v4.2c-.1.9-.7 1.5-1.5 1.5z" fill="#4eecdd"/><path class="st9" d="M245.4 31.3c-.4 0-.7-.1-1-.4-.6-.6-.6-1.5 0-2.1l2.9-3.1c.6-.6 1.5-.6 2.1 0 .6.6.6 1.5 0 2.1l-2.9 3.1c-.4.3-.7.4-1.1.4z"/><path class="st8" d="M252.7 50.2c-.5 0-.9-.2-1.2-.6l-2.4-3.5c-.5-.7-.3-1.6.4-2 .7-.5 1.6-.3 2 .4l2.4 3.5c.5.7.3 1.6-.4 2-.2.2-.5.2-.8.2z"/><path d="M41.7 147.2l89.1-17.3c6.9-1.3 8.6-2.9 7.8-7.1l-1.2-5.9-106.8 20.7 1.2 5.9c.8 4.2 3 5 9.9 3.7z" fill="#c99a66"/><path class="st0" d="M131.6 86.5l-2 .4-104.8 20.4 5.8 30.3 106.9-20.8z"/><path d="M131.6 86.5l-1.1-5.7c-.2-1.2-.6-2.3-1.2-3.4-2.1-.8-5.1-.2-8.4.5-1.6.3-87.5 16.9-89 17.3-4.4.8-8 1.3-8.5 4.6 0 .6.1 1.2.2 1.7l1.1 5.7 104.8-20.4 2.1-.3z" fill="#fffaff"/><path d="M26.5 96.5c1.5-.6 3.3-.9 5.4-1.3 1.5-.3 3.2-.6 4.9-.9l79-15.3c1.8-.3 3.5-.7 5.1-1 4.5-.9 8.4-1.8 10.3 1-2.1-5.1-7.6-9.2-13-9.7l-47-3.9c-2.4-.2-5.2.1-8 .7-5.8.4-12.8 2.1-16.7 5L29.2 84.2c-4.8 3.6-6.9 11.5-6 17.6-.4-3.1 1-4.5 3.3-5.3z" fill="#ff99a9"/><path class="st2" d="M157.6 81.2c-.4-1.9-2.6-2.2-3.8-2-1 .2-1.7.7-2.1 1.4-.6 1-.4 2.3-.3 3.1-.2-.1-.4-.1-.6-.1-.6 0-1.1.3-1.6.9-.6.8-.8 1.5-.5 2.2.3.7 1.1 1.5 3.6 1.7-3.3 10.6-8.5 14.7-14.3 16.5l-4.8-24.7c-1.3-6.9-7.5-12.8-14.1-13.4h-.1l-54.8-2.4c-2.2-.2-4.8 0-7.5.5-5 1-9.9 3-13 5.4l-16 12.6c-5.2 4-8.2 12.4-6.9 19.2l4.5 23.1c-6.2-.2-12.5-2.8-18.4-12.5 2.4-.8 3-1.8 3.1-2.5.1-.7-.3-1.4-1.1-2-.6-.5-1.2-.6-1.8-.5-.2 0-.4.1-.5.2 0-.8-.2-2.1-1-3-.6-.6-1.4-.9-2.5-.9-1.1.2-3.2 1-3.1 2.9.1 2.5 1.1 5.4 3.5 6 7.1 12.4 15.1 15.2 22.4 15.3L29 144c1.6 8.3 8.9 6.8 13.3 6l16.3-3.2c-.1 1.5-.6 5.2-2.8 7.3-1.2 1.1-2.8 1.6-4.7 1.4h-.5c-1.1-.3-2.2.1-3.1 1.1-.7.7-.9 1.6-.7 2.2l.1.2c1.9 4.5 3.8 6.9 5.7 7.2h.4c.7 0 1.4-.3 2.1-1 1.7-1.7 1.4-4-.7-6.6a9.5 9.5 0 003.8-2.1c3.9-3.7 4-10.2 4-10.5l55.6-10.8c.1.1.2.1.3.1 1.4.4 5.4 2.1 6.9 4.9.8 1.5.8 3.1.1 5-.1.2-.1.3-.1.5-.6 1-.5 2.2.2 3.2.5.8 1.2 1.3 1.8 1.3h.4c4.8-.6 7.7-1.8 8.5-3.5.4-.8.3-1.7-.2-2.7-1.2-2.1-3.5-2.5-6.6-1.1 0-1.5-.3-2.9-1-4.2-1-2.1-2.8-3.6-4.5-4.6l7.9-1.5c4.4-.9 11.7-2.3 10.1-10.5l-2.8-14.2c4.5-1.4 9.2-4.1 12.9-10 1.7-2.8 3.1-6.1 4.2-10.1 2.6-1.4 1.9-5.7 1.7-6.6zm-19 41.6c.8 4.2-.9 5.8-7.8 7.1l-11.9 2.3-.4.1-76.8 14.9c-6.9 1.3-9.1.5-9.9-3.7l-8.1-41.9c-1.1-5.7 1.5-13.1 5.8-16.4l16.2-12.5c2.8-2.1 7.3-4 11.8-4.9 2.5-.5 4.8-.6 6.7-.4h.1l54.8 2.4c5.3.5 10.4 5.5 11.5 11.1l4.8 24.9.6 3 2.6 14z"/><path d="M37.7 91.7c-.2 0-.4.1-.7 0-1.3-.1-2.2-1.2-2.1-2.5.1-.7.7-6.7 5.3-8.1 1.2-.4 2.5.3 2.9 1.5.4 1.2-.3 2.5-1.5 2.9-1.3.4-2 3.1-2.1 4.1 0 1.1-.8 1.9-1.8 2.1z" fill="#fff"/><path d="M93.6 51.9c-4.9-1.2-14.4-2.2-15.5 7.7-1.2 9.9 4.4 17.4 9.1 18.6 4.8 1.1 13.1-3.1 16.6-12.4 3.5-9.4-5.4-12.8-10.2-13.9z" fill="#eb3f4f"/><path d="M86.6 60.2c-.3.1-.5.2-.6.5-.1.4-.2 2.4.3 2.5h.1c.5-.1 1.2-1.7 1.3-2.1.1-.4-.2-.8-.7-.9h-.4zm-6.3-1.5c-.3.1-.5.2-.6.5-.1.4-.2 2.4.3 2.5h.1c.5-.1 1.2-1.7 1.3-2.1.1-.4-.2-.8-.7-.9-.1-.1-.3-.1-.4 0zm12.7 3c-.3.1-.5.2-.6.5-.1.4-.2 2.4.3 2.5h.1c.5-.1 1.2-1.7 1.3-2.1.1-.4-.2-.8-.7-.9H93zm-8.8 8.6c-.3.1-.5.2-.6.5-.1.4-.2 2.4.3 2.5h.1c.5-.1 1.2-1.7 1.3-2.1.1-.4-.2-.8-.7-.9h-.4zm6.3 1.6c-.3.1-.5.2-.6.5-.1.4-.2 2.4.3 2.5h.1c.5-.1 1.2-1.7 1.3-2.1.1-.4-.2-.8-.7-.9-.1-.1-.2-.1-.4 0zm8.8-8.7c-.3.1-.5.2-.6.5-.1.4-.2 2.4.3 2.5h.1c.5-.1 1.2-1.7 1.3-2.1.1-.4-.2-.8-.7-.9h-.4zm-4 4.1c-.3.1-.5.2-.6.5-.1.4-.2 2.4.3 2.5h.1c.5-.1 1.2-1.7 1.3-2.1.1-.4-.2-.8-.7-.9-.1-.1-.2-.1-.4 0zm-13.1-3.2c-.3.1-.5.2-.6.5-.1.4-.2 2.4.3 2.5h.1c.5-.1 1.2-1.7 1.3-2.1.1-.4-.2-.8-.7-.9h-.4zM97.8 57c-.3.1-.5.2-.6.5-.1.4-.2 2.4.3 2.5h.1c.5-.1 1.2-1.7 1.3-2.1.1-.4-.2-.8-.7-.9h-.4zm-13.2-3.2c-.3.1-.5.2-.6.5-.1.4-.2 2.4.3 2.5h.1c.5-.1 1.2-1.7 1.3-2.1.1-.4-.2-.8-.7-.9h-.4z" fill="#ffc179"/><path d="M95.2 51.1c0 2.7-2 4.9-2.7 4.9-.8 0-2.6-2.2-2.6-4.9s1.9-4.9 2.7-4.9c.5 0 2.6 2.2 2.6 4.9z" fill="#0d9306"/><path class="st18" d="M93 50.3c1.2 2.4.3 5.3-.3 5.5-.7.3-3.3-.8-4.5-3.2-1.2-2.4-.4-5.2.3-5.5.5-.2 3.3.8 4.5 3.2z"/><path d="M95 52.2c-.4 2.1-1.9 3.6-2.5 3.7h-.4c.1 0 .3.1.5 0 1-.2 2.9-1.3 3.8-3.2-.4-.2-.9-.3-1.4-.5z" fill="#39000f"/><path d="M94.1 47.7c-.6.4-1.2 1-1.7 1.7l.6.9c1.2 2.4.3 5.3-.3 5.5h-.3.2c.6-.1 2-1.7 2.5-3.7.1-.4.1-.7.1-1.1 0-1.2-.5-2.4-1.1-3.3z" fill="#036802"/><path d="M92.4 49.4c-.2.3-.4.6-.6 1-1.1 2.4-.3 5.1.4 5.5h.5c.6-.3 1.4-3.1.3-5.5-.2-.4-.4-.7-.6-1z" fill="#028801"/><path class="st18" d="M97.7 54.6c-2 1.8-5 1.7-5.4 1.2-.5-.6-.1-3.4 2-5.2 2-1.8 4.9-1.7 5.4-1.2.3.5 0 3.5-2 5.2z"/><circle transform="rotate(-12.393 67.647 110.998)" class="st2" cx="67.6" cy="111" r="3.3"/><circle transform="rotate(-12.357 90.236 106.043)" class="st2" cx="90.2" cy="106" r="3.3"/><path class="st2" d="M87.2 111.3c.7 3.3-1.9 6.8-5.9 7.6-4 .9-7.9-1.1-8.6-4.4l-.1-.3c0-.3 1.5-.9 3.4-1.3l7.5-1.7c1.9-.4 3.5-.5 3.6-.2l.1.3z"/><path class="st3" d="M83.7 116.3c.1.5-1.1 1.2-2.7 1.6-1.6.4-3 .2-3.2-.3-.1-.5.1-2.3 2.5-2.8 2.5-.6 3.3.9 3.4 1.5z"/><ellipse class="st22" cx="213" cy="169.6" rx="34.1" ry="6"/><ellipse class="st22" cx="213" cy="169.5" rx="33.1" ry="5.7"/><ellipse class="st22" cx="213" cy="169.4" rx="32" ry="5.2"/><path class="st22" d="M243.9 169.4c0 2.7-13.8 4.9-30.8 4.9s-30.8-2.2-30.8-4.9 13.8-5 30.8-5 30.8 2.2 30.8 5z"/><ellipse class="st22" cx="213" cy="169.3" rx="29.7" ry="4.7"/><ellipse class="st22" cx="213" cy="169.2" rx="28.5" ry="4.6"/><ellipse class="st22" cx="213" cy="169.1" rx="27.6" ry="4.5"/><ellipse class="st22" cx="213" cy="169.2" rx="26.3" ry="4.2"/><ellipse class="st22" cx="213" cy="169.1" rx="25.3" ry="4"/><ellipse class="st22" cx="87.6" cy="169.6" rx="50.7" ry="6.9"/><ellipse class="st22" cx="87.6" cy="169.5" rx="49.2" ry="6.6"/><path class="st22" d="M135.2 169.4c0 3.3-21.3 6-47.6 6s-47.6-2.7-47.6-6 21.3-6 47.6-6 47.6 2.7 47.6 6z"/><path class="st22" d="M133.4 169.4c0 3.2-20.5 5.7-45.8 5.7-25.3 0-45.8-2.6-45.8-5.7 0-3.2 20.5-5.7 45.8-5.7 25.3-.1 45.8 2.5 45.8 5.7z"/><ellipse class="st22" cx="87.6" cy="169.2" rx="44.1" ry="5.5"/><ellipse class="st22" cx="87.6" cy="169.1" rx="42.3" ry="5.3"/><ellipse class="st22" cx="87.6" cy="169" rx="41" ry="5.2"/><path class="st22" d="M126.7 169.1c0 2.7-17.5 4.8-39 4.8-21.6 0-39.1-2.2-39.1-4.8 0-2.7 17.5-4.8 39.1-4.8 21.5 0 39 2.1 39 4.8z"/><ellipse class="st22" cx="87.6" cy="169.1" rx="37.5" ry="4.6"/></svg>