<svg xmlns="http://www.w3.org/2000/svg" viewBox="0 0 330.3 59.7"><path d="M136.2 11.2c1.6-2.5 4.8-3.9 7.9-3.6 2 .3 4.2 1.4 5.5 3 1.3 1.5 1.8 3.1 1.9 5.8l1.8 33.2c.1 1.1.1 2.1 0 2.8-.6 4.5-4.6 7.6-9.2 7.1-4.2-.5-7.2-3.5-7.5-7.4l-.7-9.7-4.3 8.5c-2.2 4.3-5.5 6.3-9.4 5.8-4.1-.5-6.5-2.9-7.6-7.8l-2.2-9.4-2.3 7.8c-1.4 4.7-5 7.3-9.3 6.8-4.9-.6-7.9-4.8-7.3-10.1.1-.7.2-1.4.4-2l9.7-31.6c1.4-4.7 4.8-7.3 9.1-6.8 3.6.4 6.6 3 7.6 6.6l5.4 17.6 10.5-16.6zM29.5 25.6L14.3 11c-2.2-2.1-4.2-2.9-6.6-2.6C2.5 9-.6 13 .1 18.4L4 50.3c.5 3.7 1 5.2 2.6 6.9 1.8 1.8 4.5 2.7 7.1 2.4 2.5-.3 4.7-1.7 6.1-3.8 1.2-2 1.5-3.6 1.1-6.9l-1.3-10.6 15.2 15.2c2 2.1 4.3 2.9 7 2.6 2.6-.3 4.9-1.7 6.1-3.9 1.2-2.1 1.4-3.8.9-7.8L45 13.6c-.4-3.1-1.1-4.8-2.8-6.4C40.4 5.5 38 4.7 35.5 5c-2.7.3-5.2 2.1-6.4 4.5-1 1.9-1.1 3.4-.7 6.8l1.1 9.3zM302.7 28l-5.4-17.6c-1-3.6-4.1-6.2-7.6-6.6-4.3-.5-7.7 2-9.1 6.8l-9.7 31.6c-.2.7-.3 1.3-.4 2-.6 5.3 2.4 9.5 7.3 10.1 4.3.5 7.8-2 9.3-6.8l2.3-7.8 2.2 9.4c1.2 4.9 3.6 7.3 7.6 7.8 3.9.5 7.2-1.5 9.4-5.8l4.3-8.5.7 9.7c.2 3.9 3.2 6.8 7.5 7.4 4.5.6 8.6-2.5 9.2-7.1.1-.8.1-1.7 0-2.8l-1.8-33.2c-.1-2.8-.6-4.3-1.9-5.8-1.3-1.5-3.4-2.7-5.5-3-3.1-.4-6.3 1.1-7.9 3.6L302.7 28zm-96.1-2.4L191.4 11c-2.2-2.1-4.2-2.9-6.6-2.6-5.2.6-8.3 4.6-7.6 10l3.9 31.9c.5 3.7 1 5.2 2.6 6.9 1.8 1.8 4.5 2.7 7.1 2.4 2.5-.3 4.7-1.7 6.1-3.8 1.2-2 1.5-3.6 1.1-6.9l-1.3-10.6 15.2 15.2c2 2.1 4.3 2.9 7 2.6 2.6-.3 4.9-1.7 6.1-3.9 1.2-2.1 1.4-3.8.9-7.8L222 13.6c-.4-3.1-1.1-4.8-2.8-6.4-1.8-1.7-4.2-2.5-6.7-2.2-2.7.3-5.2 2.1-6.4 4.5-1 1.9-1.1 3.4-.7 6.8l1.2 9.3z" fill="#fff"/><path d="M62 26.6c0-5.4 4.5-9.7 10-9.7s10 4.4 10 9.8c0 5.5-4.5 10.1-10 10.1-5.5-.1-10-4.7-10-10.2m-16.8-.2c0 15 11.9 27 26.8 27 14.7 0 26.7-12 26.7-26.7S86.8 0 71.9 0 45.2 11.7 45.2 26.4" fill="#8d4794"/><path d="M271.8 12.5c-.8.9-1.8 1.6-3 2.1-4.1 1.7-8.8-.3-10.5-4.4-.6-1.4-.7-2.9-.5-4.3-.9 1.4-2.1 2.5-3.8 3.2-4.1 1.7-8.8-.3-10.5-4.4-.6-1.4-.7-2.8-.5-4.2-11.9 2.7-20.8 13.1-20.8 25.7 0 15 11.9 27 26.8 27 14.7 0 26.7-12 26.7-26.7.2-5.1-1.3-9.9-3.9-14zm-22.7 24.2c-5.5 0-10-4.6-10-10.1 0-5.4 4.5-9.7 10-9.7s10 4.4 10 9.8-4.5 10-10 10z" fill="#26c3b4"/></svg>