<svg xmlns="http://www.w3.org/2000/svg" viewBox="0 0 90 90"><metadata><?xpacket begin="﻿" id="W5M0MpCehiHzreSzNTczkc9d"?>
<x:xmpmeta xmlns:x="adobe:ns:meta/" x:xmptk="Adobe XMP Core 5.6-c137 79.159768, 2016/08/11-13:24:42        ">
   <rdf:RDF xmlns:rdf="http://www.w3.org/1999/02/22-rdf-syntax-ns#">
      <rdf:Description rdf:about=""/>
   </rdf:RDF>
</x:xmpmeta>
                                                                                                    
                                                                                                    
                                                                                                    
                                                                                                    
                                                                                                    
                                                                                                    
                                                                                                    
                                                                                                    
                                                                                                    
                                                                                                    
                                                                                                    
                                                                                                    
                                                                                                    
                                                                                                    
                                                                                                    
                                                                                                    
                                                                                                    
                                                                                                    
                                                                                                    
                                                                                                    
                           
<?xpacket end="w"?></metadata>
<path d="M82.2 58.6c1.2-1.3 1.8-2.8 1.8-4.2 0-1.5-.6-2.9-1.7-4.2l-.1-.1.1-.1c.9-1 1.8-2.7 1.8-4.2 0-2.1-1.1-3.3-1.6-4 0-.1-.1-.1-.1-.2l-.1-.1.1-.1c1.1-1.3 1.7-2.7 1.7-4.2s-.6-2.9-1.7-4.2l-.1-.1.1-.1c1.1-1.3 1.7-2.7 1.7-4.2 0-1.6-.7-3.1-2-4.5-1.2-1.3-3.1-2.5-5.4-3.6-4.4-2-10.5-3.6-17.8-4.5-.7-1-1.7-1.6-2.9-1.6l-14-.7h-.3c-1.5 0-3.2.6-4.3 1.3l-.9.7c-8.3.6-15.9 2.1-21.3 4.3C11 21.6 6 24.5 6 28.9c0 1.5.6 2.9 1.7 4.2l.1.1-.1.1C6.6 34.5 6 35.9 6 37.4c0 1.5.6 2.9 1.7 4.2l.1.1-.1.1c-.5.5-1.3 2-1.6 3.8C6 47 7 49.1 7.7 50l.1.1-.1.1C6.6 51.5 6 52.9 6 54.3c0 1.5.6 2.9 1.8 4.2C6.6 60 6 61.4 6 62.8c0 2.1 1.1 4 3.4 5.8 2.1 1.6 5.1 3 9 4.2 7.1 2.2 16.8 3.5 26.6 3.5s19.5-1.3 26.6-3.5c3.8-1.2 6.9-2.6 9-4.2 2.3-1.7 3.4-3.7 3.4-5.8-.1-1.4-.6-2.8-1.8-4.2zM45 50.9c2.2 0 4.5-.1 6.7-.2.6.1 1.3.2 2 .2 1 0 1.8-.2 2.6-.6 5.4-.5 10.5-1.5 14.6-2.7l2.7-.9c.8-.3 1.5-.6 2.2-.9.7-.3 1.2-.6 1.7-.8.7-.4 1.4-.8 2-1.2h.1l.1.1c.6.7.9 1.4.9 2.1v.1c0 .6-.4 1.3-.9 1.9-.3.4-.8.8-1.3 1.2-.5.4-1 .7-1.6 1.1-2.9 1.7-7.2 3.1-12.3 4.2-5.9 1.2-12.4 1.8-19.6 1.8-4.5 0-8.9-.3-13-.7h-.1l.1-.1c.8-1.5 1.1-3.4 1.4-4.9v-.1h.1c3.8.2 7.7.4 11.6.4zm-11-3.8V47c.2-.8.5-1.4.8-1.9.2-.2.3-.4.5-.6.8-.9 1.6-1.6 2.5-1.9.7-.2 1.4-.4 2.2-.4.4 0 .9 0 1.4.1.1 0 .2 0 .4.1.7.2 1.8.8 2.7 1.7.4.4.8.8 1 1.3.5.8 1 1.5 1.4 2.1l.1.1h-2.2c-3.7 0-7.3-.2-10.8-.5zm25.5-.4l.1-.2c.2-.4.4-.9.6-1.4.2-.4.3-.8.5-1.3 0-.1.1-.2.2-.4.3-.6.7-1.1 1.2-1.5.1-.1.2-.1.3-.2 1.3-.9 3-1.4 4.2-1.6h.2c.9-.2 1.8-.4 2.8-.7.6-.2 1.1-.3 1.5-.4l2.7-.9c.8-.3 1.5-.6 2.2-.9 1.4-.6 2.7-1.3 3.7-2h.1l.1.1c.6.7.9 1.4.9 2.1 0 .7-.3 1.4-.9 2.1-.3.4-.8.8-1.3 1.2-.4.3-.8.6-1.2.8 0 0-.1 0-.1.1-.1.1-.2.1-.3.2-1.2.7-2.7 1.4-4.5 2-.5.2-.9.3-1.3.5-1 .3-2 .6-3.1.9-1.2.3-2.5.6-3.9.9-1.4.3-2.9.5-4.4.7l-.3-.1zm-25.7-24c0-.5.4-1.3.9-1.7l4.6-3.4c.4-.3 1.1-.5 1.7-.7.2 0 .5-.1.6-.1l13.9.9c.3 0 .5.2.5.4v1.6c0 .5-.5 1.5-.9 1.9l-4.9 4.1c-.4.3-1.5.7-2.2.7l-13.8-.9c-.3 0-.5-.3-.5-.4v-2.4zm-18.6.8c2.9-1.3 8.1-3.1 16.5-4.1h.2l-.1.2c-.7 1-1.1 2.2-1.1 3.2v2.5c0 .4.1.8.2 1.2.2.6.6 1.1 1.1 1.5.6.5 1.4.8 2.2.9l13.6.9h.3c1.5 0 3.2-.6 4.3-1.5l4.9-4.1c1.2-1 2.1-2.8 2.1-4.3v-.2h.1c6.3.9 11.7 2.3 15.7 4.1 3.6 1.7 5.6 3.5 5.6 5.2 0 .7-.3 1.4-.9 2.1-.3.4-.8.8-1.3 1.2-.5.4-1 .7-1.6 1.1-1.6.9-3.5 1.7-5.8 2.5-1 .3-2 .6-3.1.9-.6.2-1.3.3-1.9.5h-.1c-.6.1-1.2.2-1.8.4-.9.3-1.7.6-2.5 1-1.4.8-2.6 1.8-3.3 3v.1s0 .1-.1.1c-.3.4-.4.8-.6 1.2 0 .1-.1.2-.1.3v.1c-.3.7-.5 1.2-.7 1.6-.6 1.2-1 2-1.5 2.4-.5.4-1 .5-1.5.5-.6 0-1.2 0-1.7-.2-1.1-.4-2.1-1.3-3.3-3.2-.1-.1-.2-.3-.3-.5-.2-.4-.5-.8-.9-1.2-.5-.6-1.1-1.2-1.8-1.7h-.1c-1.3-.9-2.8-1.6-3.9-1.7-.6-.1-1.2-.1-1.8-.1-2.5 0-4.4.7-6.1 2.2l-.1.1s-.1 0-.1.1c-.5.5-1 1.1-1.5 1.8-.3.5-.6 1.1-.9 1.7-.2.5-.4 1.1-.5 1.6-.1.5-.3 1-.4 1.7-.1.4-.2.8-.3 1.3 0 .1 0 .2-.1.3-.7 3.7-1.3 4.7-2.5 4.7h-.5c-1.9-.3-2.4-2.9-2.6-5.6-.1-.5-.1-1.1-.1-1.7v-.1c0-.3 0-.6-.1-1v-.1-.3-.2c0-.3 0-.7-.1-1 0-.6-.1-1.1-.2-1.7V43v-.3-.2-.3c-.1-.9-.4-1.8-.8-2.7-.2-.3-.4-.7-.6-1-.4-.5-.9-1-1.4-1.4-.6-.4-1.2-.8-1.7-1-.1 0-.2-.1-.4-.1h-.1c-2.3-.7-4.2-1.6-5.8-2.5-.6-.4-1.2-.7-1.6-1.1-.5-.4-1-.8-1.3-1.2-.6-.7-.9-1.4-.9-2.1-.3-2 1.8-3.9 5.7-5.6zm-5 11.8h.1c1.1.7 2.3 1.4 3.7 2 .7.3 1.4.6 2.2.9.7.3 1.4.5 2.1.7l.4.2c.2.1.5.4.7.6.6.7 1 1.5 1.2 2.5 0 .2.1.4.1.6v.2c0 .2 0 .3.1.5 0 .3.1.6.1 1.1v.1h-.1c-.7-.2-1.3-.4-1.9-.6-.4-.1-.8-.3-1.3-.5-1.7-.6-3.2-1.3-4.5-2-.1-.1-.2-.1-.3-.2 0 0-.1 0-.1-.1-.5-.3-.9-.6-1.2-.8-.5-.4-1-.8-1.3-1.2-.6-.7-.9-1.4-.9-2.1-.1-.5.2-1.2.9-1.9zm0 8.5h.1c.6.4 1.3.8 2 1.2.5.3 1.1.5 1.7.8.7.3 1.4.6 2.2.9.8.3 1.7.6 2.7.9.8.2 1.5.4 2.1.6h.1v.1c.1 1.5.3 3.5.9 5.2v.2h-.2c-3.6-.9-6.6-2.1-8.8-3.3-.6-.3-1.1-.7-1.6-1.1-.5-.4-1-.8-1.3-1.2-.6-.7-.9-1.3-.9-1.9v-.1c0-.9.3-1.6 1-2.3zm0 8.5h.1c3.5 2.3 8.9 4.2 15.9 5.5h.1c.1 0 .2.1.3.1H26.9c5.6 1 11.8 1.5 18 1.5 6.9 0 13.8-.6 19.9-1.8 6.4-1.3 11.6-3.1 14.8-5.3h.1l.1.1c.6.7.9 1.4.9 2.1 0 1.1-.9 2.3-2.5 3.5-1.7 1.2-4.1 2.3-7.1 3.3-6.9 2.3-16.2 3.5-26.1 3.5-10 0-19.2-1.2-26.1-3.5-3-1-5.4-2.1-7.1-3.3-1.6-1.2-2.5-2.4-2.5-3.5-.1-.8.2-1.5.9-2.2zm68 14c-1.7 1.2-4.1 2.3-7.1 3.3-6.9 2.3-16.2 3.5-26.1 3.5-10 0-19.2-1.2-26.1-3.5-3-1-5.4-2.1-7.1-3.3-1.6-1.2-2.5-2.4-2.5-3.5 0-.7.3-1.4.9-2.1v-.1c2 1.4 4.8 2.6 8.2 3.7 2.4.7 5.1 1.4 7.9 1.9.1 0 .2.1.3.1h.2c5.6 1 11.8 1.5 18.2 1.5 9.8 0 19.5-1.3 26.6-3.5 3.4-1 6.1-2.3 8.2-3.7v.1c.6.7.9 1.4.9 2.1 0 1.1-.8 2.3-2.5 3.5z" fill="#fff"/></svg>