<?xml version="1.0" encoding="utf-8"?>
<!-- Generator: Adobe Illustrator 21.0.2, SVG Export Plug-In . SVG Version: 6.00 Build 0)  -->
<svg version="1.1" id="Layer_1" xmlns="http://www.w3.org/2000/svg" xmlns:xlink="http://www.w3.org/1999/xlink" x="0px" y="0px"
	 viewBox="0 0 45 90" style="enable-background:new 0 0 45 90;" xml:space="preserve">
<metadata><?xpacket begin="﻿" id="W5M0MpCehiHzreSzNTczkc9d"?>
<x:xmpmeta xmlns:x="adobe:ns:meta/" x:xmptk="Adobe XMP Core 5.6-c137 79.159768, 2016/08/11-13:24:42        ">
   <rdf:RDF xmlns:rdf="http://www.w3.org/1999/02/22-rdf-syntax-ns#">
      <rdf:Description rdf:about=""/>
   </rdf:RDF>
</x:xmpmeta>
                                                                                                    
                                                                                                    
                                                                                                    
                                                                                                    
                                                                                                    
                                                                                                    
                                                                                                    
                                                                                                    
                                                                                                    
                                                                                                    
                                                                                                    
                                                                                                    
                                                                                                    
                                                                                                    
                                                                                                    
                                                                                                    
                                                                                                    
                                                                                                    
                                                                                                    
                                                                                                    
                           
<?xpacket end="w"?></metadata>
<style type="text/css">
	.st0{fill:#FFFFFF;}
</style>
<path class="st0" d="M42.1,21c-1.2,1.8-3.4,1.9-5.8,0.3c-0.5-0.4-1.2-0.4-1.8,0c-3.4,2.2-6.1,1.1-6.7-2.7c-0.1-0.7-0.6-1.2-1.3-1.3
	c-3.8-0.6-5-3.4-2.7-6.7c0.4-0.5,0.4-1.2,0-1.8c-1.6-2.4-1.5-4.6,0.3-5.8C25.3,2,24.6,0,23.1,0h-2.2C9.4,0,0,9.4,0,20.9v38.6
	c0,4.4,3.6,8,8,8h8v16.1c0,3.5,2.9,6.4,6.4,6.4c3.5,0,6.4-2.9,6.4-6.4V67.5h8c4.4,0,8-3.6,8-8V21.9C45,20.3,43,19.7,42.1,21z
	 M25.7,83.6c0,1.8-1.4,3.2-3.2,3.2c-1.8,0-3.2-1.4-3.2-3.2V67.5h6.4V83.6z M41.8,59.5c0,2.7-2.2,4.8-4.8,4.8c-11.2,0-19.6,0-28.9,0
	c-2.7,0-4.8-2.2-4.8-4.8V20.9c0-9.4,7.3-17.1,16.6-17.6c-0.7,1.9-0.5,4.1,0.7,6.4c-2.6,4.7-0.6,9.2,4.3,10.6
	c1.3,4.9,5.8,6.9,10.6,4.3c2.3,1.2,4.5,1.4,6.4,0.7V59.5z M32.1,30.5v28.9c0,0.9-0.7,1.6-1.6,1.6c-0.9,0-1.6-0.7-1.6-1.6V30.5
	c0-0.9,0.7-1.6,1.6-1.6C31.4,28.9,32.1,29.6,32.1,30.5z M16.1,17.7v41.8c0,0.9-0.7,1.6-1.6,1.6c-0.9,0-1.6-0.7-1.6-1.6V17.7
	c0-0.9,0.7-1.6,1.6-1.6C15.4,16.1,16.1,16.8,16.1,17.7z"/>
</svg>
