<svg version="1.1" id="Layer_1" xmlns="http://www.w3.org/2000/svg" x="0" y="0" viewBox="0 0 941.3 941.3" xml:space="preserve"><metadata><?xpacket begin="﻿" id="W5M0MpCehiHzreSzNTczkc9d"?>
<x:xmpmeta xmlns:x="adobe:ns:meta/" x:xmptk="Adobe XMP Core 5.6-c137 79.159768, 2016/08/11-13:24:42        ">
   <rdf:RDF xmlns:rdf="http://www.w3.org/1999/02/22-rdf-syntax-ns#">
      <rdf:Description rdf:about=""/>
   </rdf:RDF>
</x:xmpmeta>
                                                                                                    
                                                                                                    
                                                                                                    
                                                                                                    
                                                                                                    
                                                                                                    
                                                                                                    
                                                                                                    
                                                                                                    
                                                                                                    
                                                                                                    
                                                                                                    
                                                                                                    
                                                                                                    
                                                                                                    
                                                                                                    
                                                                                                    
                                                                                                    
                                                                                                    
                                                                                                    
                           
<?xpacket end="w"?></metadata>
<style>.st0{fill:#ff5363}.st1{fill:#c99a66}.st2{fill:#ffbb3c}.st3{fill:#a062a5}.st4{fill:#26c4b5}</style><path class="st0" d="M5.2 806.1l25.9-44.9c3.3-5.7 1.3-13.1-4.4-16.4l-1.6-.9c-5.7-3.3-13.1-1.3-16.4 4.4L0 763.4v47.5c2.1-1 4-2.7 5.2-4.8z"/><path class="st1" d="M78.2 366.1l1.6.9c5.8 3.1 13.1.9 16.3-4.9l24.5-45.7c3.1-5.8.9-13.1-4.9-16.3l-1.6-.9c-5.8-3.1-13.1-.9-16.2 4.9l-24.5 45.7c-3.2 5.9-1 13.2 4.8 16.3z"/><path class="st2" d="M317.7 246.8l50.8-10.6c6.5-1.3 10.6-7.7 9.3-14.2l-.4-1.8c-1.3-6.5-7.7-10.6-14.2-9.3l-50.8 10.6c-6.5 1.3-10.6 7.7-9.3 14.2l.4 1.8c1.3 6.5 7.7 10.6 14.2 9.3z"/><path class="st1" d="M702.7 0l-5.1 37.8c-.9 6.5 3.8 12.6 10.3 13.5l.9.1.9.1c6.5.9 12.6-3.8 13.5-10.3L728.8 0h-26.1z"/><path class="st3" d="M75.1 650.4l19.8 48c2.5 6.1 9.6 9 15.7 6.5l.9-.4.9-.4c6.1-2.5 9-9.6 6.5-15.7l-19.8-48c-2.5-6.1-9.6-9-15.7-6.5l-.9.4-.9.4c-6.1 2.5-9 9.6-6.5 15.7z"/><path class="st4" d="M326.1 0l22.7 30.3c4 5.3 11.5 6.4 16.8 2.4l1.5-1.1c5.3-4 6.4-11.5 2.4-16.8L358.4 0h-32.3zM121.8 183.3l-.8 1.7c-3 5.9-.6 13.1 5.2 16.1l46.2 23.6c5.9 3 13.1.6 16.1-5.2l.4-.8.4-.8c3-5.9.6-13.1-5.2-16.1L138 178.1c-5.9-3-13.2-.7-16.2 5.2z"/><path class="st2" d="M0 262.7l8.7-5.4 21.9-13.8c5.6-3.5 7.3-11 3.8-16.5l-.5-.8-.5-.8c-3.5-5.6-11-7.3-16.5-3.8L0 232.2v30.5z"/><path class="st0" d="M285.2 140.4l1.8-.6c6.2-2.2 9.5-9.1 7.3-15.3L277 75.6c-2.2-6.2-9.1-9.5-15.3-7.3l-1.8.6c-6.2 2.2-9.5 9.1-7.3 15.3l17.3 48.9c2.2 6.2 9.1 9.5 15.3 7.3z"/><path class="st2" d="M38.1 503.6l.5.8.5.8c3.5 5.6 11 7.3 16.6 3.7l43.9-27.7c5.6-3.5 7.3-11 3.7-16.6l-.5-.8-.5-.8c-3.5-5.6-11-7.3-16.6-3.7L41.8 487c-5.5 3.6-7.2 11.1-3.7 16.6z"/><path class="st3" d="M512.2 105.5l-27.5-44c-3.5-5.6-10.9-7.3-16.5-3.8l-.8.5-.8.5c-5.6 3.5-7.3 10.9-3.8 16.5l27.5 44c3.5 5.6 10.9 7.3 16.5 3.8l.8-.5.8-.5c5.5-3.5 7.3-10.9 3.8-16.5z"/><path class="st1" d="M858.6 941.3l-20-26.7c-4-5.3-11.5-6.4-16.8-2.4l-1.5 1.1c-5.3 4-6.4 11.5-2.4 16.8l8.4 11.2h32.3z"/><path class="st4" d="M465.2 941.3l22.7-26.3c4.3-5 11.9-5.6 16.9-1.2l.7.6.7.6c5 4.3 5.6 11.9 1.2 16.9l-8.1 9.4h-34.1zM608.6 648.1l-.6-.7-.6-.7c-4.5-4.8-12.1-5.1-17-.6l-37.9 35.4c-4.8 4.5-5.1 12.1-.6 17l.6.7.6.7c4.5 4.8 12.1 5.1 17 .6l37.9-35.4c4.8-4.5 5.1-12.2.6-17zM816 67.3l38.2 35.1c4.9 4.5 12.5 4.1 17-.7l.6-.7.6-.7c4.5-4.9 4.1-12.5-.7-17l-38.2-35.1c-4.9-4.5-12.5-4.1-17 .7l-.6.7-.6.7c-4.4 4.9-4.1 12.6.7 17z"/><path class="st2" d="M829.2 830.3l39.3-33.8c5-4.3 5.6-11.9 1.3-16.9l-.6-.7-.6-.7c-4.3-5-11.9-5.6-16.9-1.3l-39.3 33.8c-5 4.3-5.6 11.9-1.3 16.9l.6.7.6.7c4.3 5 11.9 5.6 16.9 1.3z"/><path class="st1" d="M941.3 340.2l-27.1 17c-5.6 3.5-7.3 11-3.8 16.5l.5.8.5.8c3.5 5.6 11 7.3 16.5 3.8l13.3-8.4v-30.5z"/><path class="st3" d="M871.5 257l1.8-.4c6.4-1.4 10.6-7.9 9.1-14.3l-11.2-50.6c-1.4-6.4-7.9-10.6-14.3-9.1l-1.8.4c-6.4 1.4-10.6 7.9-9.1 14.3l11.2 50.6c1.4 6.4 7.9 10.5 14.3 9.1z"/><path class="st4" d="M941.3 694.2l-21.6-23c-4.5-4.8-12.1-5.1-17-.5l-.7.6-.7.6c-4.8 4.5-5.1 12.1-.5 17l35.5 37.8c1.4 1.5 3.1 2.6 5 3.2v-35.7z"/><path class="st0" d="M872.7 588.6l-26.2-44.8c-3.3-5.7-10.7-7.6-16.4-4.3l-.8.5-.8.5c-5.7 3.3-7.6 10.7-4.3 16.4l26.2 44.8c3.3 5.7 10.7 7.6 16.4 4.3l.8-.5.8-.5c5.7-3.3 7.6-10.7 4.3-16.4zM243.3 335.4l23.7 46.1c3 5.9 10.3 8.2 16.2 5.2l.8-.4.8-.4c5.9-3 8.2-10.3 5.2-16.2l-23.7-46.1c-3-5.9-10.3-8.2-16.2-5.2l-.8.4-.8.4c-5.9 3-8.2 10.3-5.2 16.2z"/><path class="st4" d="M190.7 550.4l.9.3.9.3c6.1 2.4 13.1-.6 15.6-6.7l19.2-48.2c2.4-6.1-.6-13.1-6.7-15.6l-1.7-.7c-6.1-2.4-13.1.6-15.6 6.7L184 534.8c-2.5 6.2.6 13.2 6.7 15.6z"/><path class="st2" d="M133 879.2l-40.4-32.5c-5.1-4.1-12.7-3.3-16.9 1.8l-.6.7-.6.7c-4.1 5.1-3.3 12.7 1.8 16.9l40.4 32.5c5.1 4.1 12.7 3.3 16.9-1.8l.6-.7.6-.7c4.1-5.2 3.3-12.8-1.8-16.9z"/><path class="st0" d="M757.9 258l-47.7-20.3c-6.1-2.6-13.2.3-15.7 6.4l-.4.9-.4.9c-2.6 6.1.3 13.2 6.4 15.7l47.7 20.3c6.1 2.6 13.2-.3 15.7-6.4l.4-.9.4-.9c2.5-6-.3-13.1-6.4-15.7z"/><path class="st4" d="M635 357.6l-1-1.6c-3.5-5.6-10.9-7.4-16.5-3.9l-44.1 27.3c-5.6 3.5-7.4 10.9-3.9 16.5l1 1.6c3.5 5.6 10.9 7.4 16.5 3.9l44.1-27.3c5.7-3.5 7.4-10.9 3.9-16.5z"/><path class="st3" d="M757.5 659.5l-.9-.3-.9-.3c-6.1-2.4-13.1.6-15.6 6.7L721 713.7c-2.4 6.1.6 13.1 6.7 15.6l.9.3.9.3c6.1 2.4 13.1-.6 15.6-6.7l19.2-48.2c2.4-6-.6-13-6.8-15.5z"/><path class="st0" d="M279.5 692.6l-47.7-20.3c-6.1-2.6-13.2.3-15.7 6.4l-.7 1.7c-2.6 6.1.3 13.2 6.4 15.7l47.7 20.3c6.1 2.6 13.2-.3 15.7-6.4l.7-1.7c2.6-6-.3-13.1-6.4-15.7z"/><path class="st4" d="M250.5 795.3l-1-1.6c-3.5-5.6-10.9-7.4-16.5-3.9l-44 27.4c-5.6 3.5-7.4 10.9-3.9 16.5l1 1.6c3.5 5.6 10.9 7.4 16.5 3.9l44.1-27.3c5.6-3.5 7.3-11 3.8-16.6z"/><path class="st1" d="M425.1 711.4l1.7-.8c5.9-3 8.2-10.3 5.2-16.2l-23.7-46.1c-3-5.9-10.3-8.2-16.2-5.2l-1.7.8c-5.9 3-8.2 10.3-5.2 16.2l23.7 46.1c3 5.8 10.3 8.2 16.2 5.2z"/><path class="st3" d="M385.5 800.7l-1.7-.7c-6.1-2.4-13.1.6-15.6 6.7l-20 50.1c-1.7 4.2 1.3 11.2 7.5 13.7l.9.3.9.3c6.1 2.4 13.1-.6 15.6-6.7l19.2-48.2c2.4-6.1-.6-13.1-6.8-15.5zM461.1 393l-51.8-3.4c-6.6-.4-12.3 4.6-12.8 11.2l-.1 1.9c-.4 6.6 4.6 12.3 11.2 12.8l51.8 3.4c6.6.4 12.3-4.6 12.8-11.2l.1-1.9c.5-6.6-4.6-12.3-11.2-12.8z"/><path class="st2" d="M572.9 871.1l1.1-1.5c4-5.2 3-12.8-2.2-16.8l-41.2-31.5c-5.2-4-12.8-3-16.8 2.2l-1.1 1.5c-4 5.2-3 12.8 2.2 16.8l41.2 31.5c5.3 4 12.8 3 16.8-2.2z"/><path class="st0" d="M525.9 551.5c-2.8 6-.2 13.2 5.7 16l.8.4.8.4c6 2.8 13.2.2 16-5.7l22.1-46.9c2.8-6 .2-13.2-5.7-16l-.8-.4-.8-.4c-6-2.8-13.2-.2-16 5.7l-22.1 46.9z"/><path class="st2" d="M348.8 560l40.1-32.9c5.1-4.2 5.9-11.8 1.7-16.9l-1.2-1.4c-4.2-5.1-11.8-5.9-16.9-1.7L332.4 540c-5.1 4.2-5.9 11.8-1.7 16.9l1.2 1.4c4.2 5.1 11.8 5.9 16.9 1.7z"/><path class="st0" d="M721 864.7l-23.7-46.1c-3-5.9-10.3-8.2-16.2-5.2l-.8.4-.8.4c-5.9 3-8.2 10.3-5.2 16.2l23.7 46.1c3 5.9 10.3 8.2 16.2 5.2l.8-.4.8-.4c5.8-3 8.2-10.3 5.2-16.2z"/><path class="st1" d="M508.6 279.9c1.4 6.4 7.9 10.6 14.3 9.1l1.8-.4c6.4-1.4 10.6-7.9 9.1-14.3l-11.2-50.6c-1.4-6.4-7.9-10.6-14.3-9.1l-1.8.4c-6.4 1.4-10.6 7.9-9.1 14.3l11.2 50.6z"/><path class="st2" d="M615.9 170.8c-2.7 6 .1 13.2 6.2 15.8l1.7.7c6 2.7 13.2-.1 15.8-6.2l20.9-47.5c2.7-6-.1-13.2-6.2-15.8l-1.7-.7c-6-2.7-13.2.1-15.8 6.2l-20.9 47.5z"/><path class="st1" d="M673.6 506.9l45.9 24.2c5.8 3.1 13.1.8 16.2-5l.4-.8.4-.8c3.1-5.8.8-13.1-5-16.2L685.7 484c-5.8-3.1-13.1-.8-16.2 5l-.7 1.3-.2.3c-3 5.9-.8 13.2 5 16.3z"/><path class="st2" d="M805.2 392.1l-6.9 51.4c-.9 6.5 3.8 12.6 10.3 13.5l.9.1.9.1c6.5.9 12.6-3.8 13.5-10.3l6.9-51.4c.9-6.5-3.8-12.6-10.3-13.5l-.9-.1-.9-.1c-6.5-.8-12.6 3.8-13.5 10.3z"/><path class="st3" d="M54.1 67.5l.1.9.1.9c.7 6.6 6.7 11.3 13.3 10.6l51.5-5.9c6.6-.7 11.3-6.7 10.6-13.3l-.2-1.9c-.7-6.6-6.7-11.3-13.3-10.6l-51.5 5.9c-6.6.8-11.3 6.8-10.6 13.4z"/><path fill="none" d="M0 0h941.3v941.3H0z"/></svg>